<svg width="81" height="81" viewBox="0 0 81 81" fill="none" xmlns="http://www.w3.org/2000/svg">
<g clip-path="url(#clip0_972_6596)">
<g filter="url(#filter0_dd_972_6596)">
<path d="M58.1248 63.473C58.1248 65.7785 56.2593 67.6439 53.9539 67.6439H17.876C15.5881 67.6439 13.7227 65.7785 13.7227 63.473L13.7228 15.4376C13.7228 13.1321 15.5883 11.2666 17.8938 11.2666H42.8667L58.125 26.5249L58.1248 63.473Z" fill="white"/>
<path d="M56.9231 63.473C56.9231 65.1148 55.5957 66.4423 53.9539 66.4423H17.876C16.2551 66.4423 14.9243 65.1181 14.9243 63.473L14.9245 15.4376C14.9245 13.7958 16.252 12.4683 17.8938 12.4683H42.3689L56.9233 27.0226L56.9231 63.473Z" stroke="#404951" stroke-width="2.40336"/>
</g>
<g filter="url(#filter1_dd_972_6596)">
<path d="M42.8652 11.2666V22.3715C42.8652 24.677 44.7307 26.5425 47.0362 26.5425H58.1411L42.8652 11.2666Z" fill="#404951"/>
</g>
<path d="M21.4512 22.9697H37.2902" stroke="#9C9C9C" stroke-width="3.1475" stroke-miterlimit="10"/>
<path d="M21.4512 29.1475H43.6259" stroke="#9C9C9C" stroke-width="3.1475" stroke-miterlimit="10"/>
<path d="M21.4512 35.3076H36.0231" stroke="#9C9C9C" stroke-width="3.1475" stroke-miterlimit="10"/>
<path d="M21.4512 41.4844H30.9722" stroke="#9C9C9C" stroke-width="3.1475" stroke-miterlimit="10"/>
<path d="M21.4512 47.6611H28.438" stroke="#9C9C9C" stroke-width="3.1475" stroke-miterlimit="10"/>
<path d="M53.9546 74.7744C61.312 74.7744 67.2763 68.81 67.2763 61.4526C67.2763 54.0952 61.312 48.1309 53.9546 48.1309C46.5972 48.1309 40.6328 54.0952 40.6328 61.4526C40.6328 68.81 46.5972 74.7744 53.9546 74.7744Z" fill="#006FBC"/>
<path d="M59.2946 64.9061C59.2946 66.1059 58.9486 67.0672 58.2564 67.7902C57.5642 68.5131 56.7259 68.9899 55.7415 69.2206V70.6973C55.7415 71.2356 55.6877 71.6125 55.58 71.8278C55.4877 72.0432 55.3416 72.1893 55.1416 72.2662C54.9571 72.3431 54.7033 72.3816 54.3802 72.3816C54.0572 72.3816 53.7957 72.3431 53.5958 72.2662C53.4112 72.1893 53.2805 72.0508 53.2036 71.8509C53.0959 71.5894 53.0421 71.1972 53.0421 70.6742V69.2437C52.4114 69.1053 51.8423 68.8746 51.3347 68.5515C50.8271 68.2285 50.4733 67.944 50.2734 67.6979L49.9734 67.3056C49.6504 66.8903 49.4889 66.5289 49.4889 66.2212C49.4889 65.9136 49.7504 65.506 50.2734 64.9984C50.581 64.7062 50.904 64.56 51.2424 64.56C51.5962 64.56 52.0807 64.8677 52.696 65.4829C53.1728 66.0674 53.7111 66.3597 54.311 66.3597C55.4493 66.3597 56.0184 65.8905 56.0184 64.9523C56.0184 64.6139 55.803 64.3524 55.3724 64.1678C54.9417 63.9832 54.4187 63.8217 53.8034 63.6833C53.1882 63.5295 52.5729 63.3295 51.9577 63.0834C51.3424 62.8373 50.8194 62.4143 50.3887 61.8144C49.9581 61.2146 49.7427 60.4532 49.7427 59.5303C49.7427 58.6074 50.035 57.7768 50.6195 57.0385C51.204 56.3002 52.0115 55.8233 53.0421 55.608V54.3159C53.0421 53.793 53.0882 53.4161 53.1805 53.1854C53.3343 52.8162 53.7419 52.6317 54.4033 52.6317C54.8186 52.6317 55.1263 52.7239 55.3262 52.9085C55.5416 53.0777 55.6646 53.2623 55.6954 53.4623C55.7261 53.6622 55.7415 53.9545 55.7415 54.339V55.6311C56.1722 55.7233 56.5644 55.8541 56.9182 56.0233C57.272 56.1925 57.5181 56.3309 57.6565 56.4386L57.8642 56.6232L57.9565 56.6924C58.341 57.0462 58.5333 57.3384 58.5333 57.5691C58.5333 57.7999 58.3487 58.1844 57.9795 58.7227C57.6257 59.2611 57.2335 59.5303 56.8028 59.5303C56.526 59.5303 56.2876 59.4611 56.0876 59.3226C55.903 59.1842 55.7569 59.0688 55.6492 58.9765C55.5416 58.8843 55.4416 58.8073 55.3493 58.7458C55.0878 58.5766 54.7571 58.492 54.3572 58.492C53.9573 58.492 53.6266 58.592 53.3651 58.792C53.1036 58.9765 52.9728 59.238 52.9728 59.5764C52.9728 59.9148 53.1267 60.1917 53.4343 60.407C53.7573 60.607 54.1495 60.7454 54.611 60.8223C55.0724 60.8839 55.58 60.9992 56.1337 61.1684C56.6875 61.3222 57.1951 61.5068 57.6565 61.7221C58.118 61.9375 58.5025 62.322 58.8101 62.8758C59.1331 63.4141 59.2946 64.0909 59.2946 64.9061Z" fill="#FDFDFE"/>
</g>
<defs>
<filter id="filter0_dd_972_6596" x="-8.14234" y="-10.5984" width="79.2673" height="91.2419" filterUnits="userSpaceOnUse" color-interpolation-filters="sRGB">
<feFlood flood-opacity="0" result="BackgroundImageFix"/>
<feColorMatrix in="SourceAlpha" type="matrix" values="0 0 0 0 0 0 0 0 0 0 0 0 0 0 0 0 0 0 127 0" result="hardAlpha"/>
<feOffset dx="3" dy="3"/>
<feGaussianBlur stdDeviation="5"/>
<feComposite in2="hardAlpha" operator="out"/>
<feColorMatrix type="matrix" values="0 0 0 0 0.168229 0 0 0 0 0.259271 0 0 0 0 0.395833 0 0 0 0.12 0"/>
<feBlend mode="normal" in2="BackgroundImageFix" result="effect1_dropShadow_972_6596"/>
<feColorMatrix in="SourceAlpha" type="matrix" values="0 0 0 0 0 0 0 0 0 0 0 0 0 0 0 0 0 0 127 0" result="hardAlpha"/>
<feOffset dx="-6.24714" dy="-6.24714"/>
<feGaussianBlur stdDeviation="7.80893"/>
<feComposite in2="hardAlpha" operator="out"/>
<feColorMatrix type="matrix" values="0 0 0 0 1 0 0 0 0 1 0 0 0 0 1 0 0 0 0.7 0"/>
<feBlend mode="normal" in2="effect1_dropShadow_972_6596" result="effect2_dropShadow_972_6596"/>
<feBlend mode="normal" in="SourceGraphic" in2="effect2_dropShadow_972_6596" result="shape"/>
</filter>
<filter id="filter1_dd_972_6596" x="21.0002" y="-10.5984" width="59.0054" height="59.0064" filterUnits="userSpaceOnUse" color-interpolation-filters="sRGB">
<feFlood flood-opacity="0" result="BackgroundImageFix"/>
<feColorMatrix in="SourceAlpha" type="matrix" values="0 0 0 0 0 0 0 0 0 0 0 0 0 0 0 0 0 0 127 0" result="hardAlpha"/>
<feOffset dx="6.24714" dy="6.24714"/>
<feGaussianBlur stdDeviation="7.80893"/>
<feComposite in2="hardAlpha" operator="out"/>
<feColorMatrix type="matrix" values="0 0 0 0 0.168229 0 0 0 0 0.259271 0 0 0 0 0.395833 0 0 0 0.12 0"/>
<feBlend mode="normal" in2="BackgroundImageFix" result="effect1_dropShadow_972_6596"/>
<feColorMatrix in="SourceAlpha" type="matrix" values="0 0 0 0 0 0 0 0 0 0 0 0 0 0 0 0 0 0 127 0" result="hardAlpha"/>
<feOffset dx="-6.24714" dy="-6.24714"/>
<feGaussianBlur stdDeviation="7.80893"/>
<feComposite in2="hardAlpha" operator="out"/>
<feColorMatrix type="matrix" values="0 0 0 0 1 0 0 0 0 1 0 0 0 0 1 0 0 0 0.7 0"/>
<feBlend mode="normal" in2="effect1_dropShadow_972_6596" result="effect2_dropShadow_972_6596"/>
<feBlend mode="normal" in="SourceGraphic" in2="effect2_dropShadow_972_6596" result="shape"/>
</filter>
<clipPath id="clip0_972_6596">
<rect width="80" height="80" fill="white" transform="translate(0.5 0.5)"/>
</clipPath>
</defs>
</svg>
