<svg width="81" height="81" viewBox="0 0 81 81" fill="none" xmlns="http://www.w3.org/2000/svg">
<g clip-path="url(#clip0_972_8456)">
<rect x="8.75977" y="13.7578" width="46.9009" height="12.0386" fill="#9C9C9C"/>
<path d="M8.75977 52.9859C8.75977 55.9061 11.1271 58.2734 14.0473 58.2734H50.3731C53.2933 58.2734 55.6606 55.9061 55.6606 52.9859V25.7971H8.75977V52.9859Z" fill="#EEEEEE"/>
<path d="M16.2207 20.8428L16.2207 9.98712" stroke="#404851" stroke-width="3.46237" stroke-miterlimit="10"/>
<path d="M48.2051 20.8428L48.2051 9.98712" stroke="#404851" stroke-width="3.46237" stroke-miterlimit="10"/>
<g filter="url(#filter0_dd_972_8456)">
<path d="M58.6167 57.2755C65.5198 50.3724 65.5198 39.1803 58.6167 32.2772C51.7136 25.3741 40.5214 25.3741 33.6183 32.2772C26.7152 39.1803 26.7152 50.3724 33.6183 57.2755C40.5214 64.1787 51.7136 64.1787 58.6167 57.2755Z" fill="white"/>
<path d="M57.682 33.2119C64.0689 39.5988 64.0689 49.954 57.682 56.3408C51.2951 62.7277 40.9399 62.7277 34.553 56.3408C28.1662 49.954 28.1662 39.5988 34.553 33.2119C40.9399 26.825 51.2951 26.825 57.682 33.2119Z" stroke="#404951" stroke-width="2.64379"/>
</g>
<path d="M62.5015 61.1818L57.9258 56.582" stroke="#404851" stroke-width="2.64379" stroke-miterlimit="10"/>
<path d="M58.9375 63.1559L64.5006 57.5928L74.1337 67.2258C75.675 68.7671 75.675 71.2476 74.1337 72.7889C72.5924 74.3302 70.1119 74.3302 68.5706 72.7889L58.9375 63.1559Z" fill="#006FBC"/>
<path d="M51.802 48.9625C51.802 50.2822 51.4213 51.3398 50.6599 52.135C49.8985 52.9303 48.9763 53.4548 47.8934 53.7086V55.3329C47.8934 55.9251 47.8342 56.3397 47.7158 56.5766C47.6143 56.8134 47.4535 56.9742 47.2336 57.0588C47.0305 57.1434 46.7513 57.1857 46.396 57.1857C46.0407 57.1857 45.753 57.1434 45.5331 57.0588C45.33 56.9742 45.1862 56.8219 45.1016 56.6019C44.9832 56.3143 44.9239 55.8828 44.9239 55.3075V53.734C44.2302 53.5817 43.6042 53.3279 43.0458 52.9726C42.4874 52.6172 42.0983 52.3042 41.8783 52.0335L41.5484 51.602C41.193 51.1452 41.0154 50.7475 41.0154 50.4091C41.0154 50.0707 41.303 49.6223 41.8783 49.064C42.2167 48.7425 42.572 48.5818 42.9443 48.5818C43.3334 48.5818 43.8664 48.9202 44.5432 49.597C45.0678 50.2399 45.66 50.5614 46.3199 50.5614C47.572 50.5614 48.198 50.0454 48.198 49.0132C48.198 48.641 47.9611 48.3533 47.4874 48.1503C47.0136 47.9472 46.4383 47.7696 45.7615 47.6173C45.0847 47.4481 44.4079 47.2281 43.7311 46.9574C43.0543 46.6867 42.479 46.2214 42.0052 45.5615C41.5314 44.9016 41.2946 44.064 41.2946 43.0488C41.2946 42.0336 41.616 41.1199 42.259 40.3078C42.902 39.4956 43.7903 38.9711 44.9239 38.7342V37.3129C44.9239 36.7376 44.9747 36.323 45.0762 36.0692C45.2454 35.6632 45.6938 35.4601 46.4214 35.4601C46.8782 35.4601 47.2166 35.5616 47.4366 35.7647C47.6735 35.9508 47.8088 36.1538 47.8427 36.3738C47.8765 36.5938 47.8934 36.9153 47.8934 37.3383V38.7596C48.3672 38.8611 48.7987 39.0049 49.1878 39.191C49.577 39.3771 49.8477 39.5294 50 39.6479L50.2284 39.8509L50.33 39.9271C50.753 40.3162 50.9645 40.6377 50.9645 40.8915C50.9645 41.1453 50.7614 41.5683 50.3553 42.1605C49.9662 42.7527 49.5347 43.0488 49.0609 43.0488C48.7564 43.0488 48.4941 42.9727 48.2741 42.8204C48.0711 42.6681 47.9104 42.5412 47.7919 42.4397C47.6735 42.3382 47.5635 42.2536 47.462 42.1859C47.1743 41.9998 46.8105 41.9067 46.3706 41.9067C45.9307 41.9067 45.5669 42.0167 45.2793 42.2367C44.9916 42.4397 44.8478 42.7274 44.8478 43.0996C44.8478 43.4718 45.017 43.7764 45.3554 44.0133C45.7107 44.2333 46.1422 44.3855 46.6498 44.4701C47.1574 44.5378 47.7158 44.6647 48.3249 44.8508C48.934 45.02 49.4924 45.2231 50 45.46C50.5076 45.6969 50.9306 46.1199 51.269 46.729C51.6244 47.3212 51.802 48.0657 51.802 48.9625Z" fill="#006FBC"/>
</g>
<defs>
<filter id="filter0_dd_972_8456" x="4.38914" y="3.04734" width="83.4581" height="83.4581" filterUnits="userSpaceOnUse" color-interpolation-filters="sRGB">
<feFlood flood-opacity="0" result="BackgroundImageFix"/>
<feColorMatrix in="SourceAlpha" type="matrix" values="0 0 0 0 0 0 0 0 0 0 0 0 0 0 0 0 0 0 127 0" result="hardAlpha"/>
<feOffset dx="6.87208" dy="6.87208"/>
<feGaussianBlur stdDeviation="8.5901"/>
<feComposite in2="hardAlpha" operator="out"/>
<feColorMatrix type="matrix" values="0 0 0 0 0.168229 0 0 0 0 0.259271 0 0 0 0 0.395833 0 0 0 0.12 0"/>
<feBlend mode="normal" in2="BackgroundImageFix" result="effect1_dropShadow_972_8456"/>
<feColorMatrix in="SourceAlpha" type="matrix" values="0 0 0 0 0 0 0 0 0 0 0 0 0 0 0 0 0 0 127 0" result="hardAlpha"/>
<feOffset dx="-6.87208" dy="-6.87208"/>
<feGaussianBlur stdDeviation="8.5901"/>
<feComposite in2="hardAlpha" operator="out"/>
<feColorMatrix type="matrix" values="0 0 0 0 1 0 0 0 0 1 0 0 0 0 1 0 0 0 0.7 0"/>
<feBlend mode="normal" in2="effect1_dropShadow_972_8456" result="effect2_dropShadow_972_8456"/>
<feBlend mode="normal" in="SourceGraphic" in2="effect2_dropShadow_972_8456" result="shape"/>
</filter>
<clipPath id="clip0_972_8456">
<rect width="80" height="80" fill="white" transform="translate(0.5 0.5)"/>
</clipPath>
</defs>
</svg>
