<svg width="81" height="81" viewBox="0 0 81 81" fill="none" xmlns="http://www.w3.org/2000/svg">
<g clip-path="url(#clip0_972_8361)">
<path d="M59.4549 59.9956C65.408 55.2827 68.8145 48.7839 69.2775 41.1772C69.3106 40.7142 69.3272 40.2346 69.3437 39.755C69.3768 36.8446 69.0295 34.3642 68.1696 31.5861L60.3975 34.0004C60.9432 35.7863 61.2409 37.688 61.2078 39.6558C61.1251 45.7247 58.0824 51.066 53.4688 54.3071L58.1651 60.9547C58.595 60.6405 59.025 60.3263 59.4549 59.9956Z" fill="#9C9C9C"/>
<path d="M28.02 49.9092C25.8703 46.8665 24.63 43.1458 24.6797 39.1274C24.8285 29.0402 33.1132 20.987 43.2004 21.1358C51.3198 21.2516 58.1163 26.6425 60.3817 34.0012L68.1539 31.5869C68.1373 31.5207 68.1042 31.438 68.0877 31.3719C67.9885 31.0412 67.8727 30.727 67.757 30.3962C67.7239 30.297 67.6908 30.2143 67.6578 30.1151C63.9536 20.1437 55.057 13.5787 44.391 13.0165C44.143 12.9999 43.8949 12.9999 43.6469 12.9999C43.5311 12.9999 43.4319 12.9834 43.3162 12.9834C43.2996 12.9834 43.2831 12.9834 43.25 12.9834C42.9028 12.9834 42.539 12.9834 42.1917 12.9999C42.0925 12.9999 41.9767 12.9999 41.8775 13.0165C41.5964 13.033 41.3318 13.0495 41.0507 13.0661C40.8522 13.0826 40.6703 13.0826 40.4719 13.1157C40.3231 13.1322 40.1743 13.1488 40.0089 13.1653C39.6947 13.1984 39.3805 13.2314 39.0663 13.2811C39.0498 13.2811 39.0332 13.2811 39.0167 13.2976C36.7678 13.6283 34.618 14.2567 32.5841 15.1166C32.336 15.2323 32.088 15.3316 31.8399 15.4473C31.8399 15.4473 31.8234 15.4473 31.8234 15.4639C23.7205 19.2342 17.8336 27.0063 16.7256 36.2832C16.7256 36.3328 16.7091 36.3824 16.7091 36.432C16.676 36.7462 16.643 37.0604 16.6264 37.3746C16.6099 37.54 16.6099 37.6888 16.5934 37.8541C16.5768 38.0691 16.5768 38.2841 16.5603 38.4825C16.5603 38.6644 16.5437 38.8463 16.5437 39.0282C16.4611 44.8325 18.2635 50.2068 21.3724 54.6055L28.02 49.9092Z" fill="#EEEEEE"/>
<path d="M58.15 60.9555L53.4537 54.3079C50.411 56.4576 46.6903 57.6978 42.6719 57.6482C36.6031 57.5655 31.2618 54.5228 28.0207 49.9092L21.373 54.6055C21.6707 55.0189 21.9684 55.4323 22.2825 55.8292C26.7308 61.4847 32.7832 64.8415 39.8442 65.6022C39.8938 65.6022 39.9434 65.6188 39.993 65.6188C40.3568 65.6518 40.7206 65.6849 41.0844 65.718C41.101 65.718 41.1175 65.718 41.1506 65.718C41.2498 65.718 41.3656 65.718 41.4813 65.7345C41.8451 65.7511 42.2089 65.7841 42.5893 65.7841C48.2612 65.8668 53.5529 64.147 57.902 61.1539C58.4146 60.7901 58.5965 60.6413 58.15 60.9555Z" fill="#9C9C9C"/>
<path d="M43.4629 39.0442L72.1701 48.3707C77.3129 32.5123 68.6478 15.4963 52.7894 10.337C49.6144 9.31172 46.8032 8.86523 43.4629 8.86523V39.0442Z" fill="#006FBC"/>
<g filter="url(#filter0_d_972_8361)">
<path d="M59.6035 20.8212L66.0693 14.3555H73.7421" stroke="#253758" stroke-width="2.42622" stroke-linecap="round" shape-rendering="crispEdges"/>
</g>
<g filter="url(#filter1_d_972_8361)">
<path d="M73.7433 9.44336H68.832" stroke="#253758" stroke-width="2.42622" stroke-linecap="round"/>
</g>
<g filter="url(#filter2_d_972_8361)">
<rect x="7.25391" y="39.1357" width="32.9989" height="32.9989" rx="16.4994" fill="white"/>
<rect x="8.46702" y="40.3489" width="30.5727" height="30.5727" rx="15.2863" stroke="#253758" stroke-width="2.42622"/>
</g>
<path d="M28.9344 59.0325C28.9344 60.2437 28.585 61.2141 27.8863 61.944C27.1875 62.6738 26.3413 63.1551 25.3475 63.388V64.8787C25.3475 65.4222 25.2931 65.8026 25.1844 66.02C25.0913 66.2374 24.9438 66.3849 24.7419 66.4626C24.5556 66.5402 24.2994 66.579 23.9733 66.579C23.6472 66.579 23.3832 66.5402 23.1814 66.4626C22.995 66.3849 22.863 66.2452 22.7854 66.0433C22.6767 65.7793 22.6224 65.3834 22.6224 64.8554V63.4113C21.9857 63.2716 21.4112 63.0387 20.8988 62.7126C20.3863 62.3865 20.0292 62.0992 19.8273 61.8508L19.5245 61.4548C19.1985 61.0356 19.0354 60.6707 19.0354 60.3601C19.0354 60.0496 19.2994 59.6381 19.8273 59.1257C20.1379 58.8306 20.464 58.6831 20.8056 58.6831C21.1627 58.6831 21.6519 58.9937 22.273 59.6148C22.7543 60.2048 23.2978 60.4999 23.9034 60.4999C25.0525 60.4999 25.627 60.0263 25.627 59.0791C25.627 58.7375 25.4096 58.4735 24.9748 58.2871C24.54 58.1008 24.0121 57.9378 23.391 57.798C22.7699 57.6427 22.1488 57.4409 21.5276 57.1924C20.9065 56.944 20.3786 56.517 19.9438 55.9114C19.509 55.3058 19.2916 54.5372 19.2916 53.6055C19.2916 52.6738 19.5867 51.8353 20.1767 51.09C20.7668 50.3447 21.582 49.8633 22.6224 49.6459V48.3416C22.6224 47.8136 22.6689 47.4332 22.7621 47.2003C22.9174 46.8276 23.3289 46.6413 23.9966 46.6413C24.4158 46.6413 24.7264 46.7344 24.9282 46.9208C25.1456 47.0916 25.2698 47.2779 25.3009 47.4798C25.332 47.6816 25.3475 47.9767 25.3475 48.3649V49.6692C25.7823 49.7624 26.1782 49.8944 26.5354 50.0652C26.8925 50.236 27.141 50.3757 27.2807 50.4844L27.4903 50.6707L27.5835 50.7406C27.9717 51.0978 28.1658 51.3928 28.1658 51.6257C28.1658 51.8586 27.9795 52.2468 27.6068 52.7903C27.2496 53.3338 26.8537 53.6055 26.4189 53.6055C26.1394 53.6055 25.8987 53.5356 25.6969 53.3959C25.5105 53.2561 25.363 53.1397 25.2543 53.0465C25.1456 52.9533 25.0447 52.8757 24.9515 52.8136C24.6876 52.6428 24.3537 52.5574 23.95 52.5574C23.5463 52.5574 23.2124 52.6583 22.9484 52.8602C22.6845 53.0465 22.5525 53.3105 22.5525 53.6521C22.5525 53.9937 22.7078 54.2732 23.0183 54.4906C23.3444 54.6925 23.7404 54.8322 24.2062 54.9098C24.672 54.972 25.1844 55.0884 25.7434 55.2592C26.3024 55.4145 26.8149 55.6008 27.2807 55.8182C27.7465 56.0356 28.1347 56.4238 28.4453 56.9828C28.7714 57.5263 28.9344 58.2095 28.9344 59.0325Z" fill="#006FBC"/>
</g>
<defs>
<filter id="filter0_d_972_8361" x="54.5087" y="2.46719" width="47.6201" height="39.9473" filterUnits="userSpaceOnUse" color-interpolation-filters="sRGB">
<feFlood flood-opacity="0" result="BackgroundImageFix"/>
<feColorMatrix in="SourceAlpha" type="matrix" values="0 0 0 0 0 0 0 0 0 0 0 0 0 0 0 0 0 0 127 0" result="hardAlpha"/>
<feOffset dx="11.6459" dy="4.85245"/>
<feGaussianBlur stdDeviation="7.76392"/>
<feComposite in2="hardAlpha" operator="out"/>
<feColorMatrix type="matrix" values="0 0 0 0 0.168229 0 0 0 0 0.259271 0 0 0 0 0.395833 0 0 0 0.16 0"/>
<feBlend mode="normal" in2="BackgroundImageFix" result="effect1_dropShadow_972_8361"/>
<feBlend mode="normal" in="SourceGraphic" in2="effect1_dropShadow_972_8361" result="shape"/>
</filter>
<filter id="filter1_d_972_8361" x="63.7372" y="-2.44492" width="38.3936" height="33.4815" filterUnits="userSpaceOnUse" color-interpolation-filters="sRGB">
<feFlood flood-opacity="0" result="BackgroundImageFix"/>
<feColorMatrix in="SourceAlpha" type="matrix" values="0 0 0 0 0 0 0 0 0 0 0 0 0 0 0 0 0 0 127 0" result="hardAlpha"/>
<feOffset dx="11.6459" dy="4.85245"/>
<feGaussianBlur stdDeviation="7.76392"/>
<feComposite in2="hardAlpha" operator="out"/>
<feColorMatrix type="matrix" values="0 0 0 0 0.168229 0 0 0 0 0.259271 0 0 0 0 0.395833 0 0 0 0.16 0"/>
<feBlend mode="normal" in2="BackgroundImageFix" result="effect1_dropShadow_972_8361"/>
<feBlend mode="normal" in="SourceGraphic" in2="effect1_dropShadow_972_8361" result="shape"/>
</filter>
<filter id="filter2_d_972_8361" x="4.25391" y="31.1357" width="52.998" height="52.999" filterUnits="userSpaceOnUse" color-interpolation-filters="sRGB">
<feFlood flood-opacity="0" result="BackgroundImageFix"/>
<feColorMatrix in="SourceAlpha" type="matrix" values="0 0 0 0 0 0 0 0 0 0 0 0 0 0 0 0 0 0 127 0" result="hardAlpha"/>
<feOffset dx="7" dy="2"/>
<feGaussianBlur stdDeviation="5"/>
<feComposite in2="hardAlpha" operator="out"/>
<feColorMatrix type="matrix" values="0 0 0 0 0.168229 0 0 0 0 0.259271 0 0 0 0 0.395833 0 0 0 0.16 0"/>
<feBlend mode="normal" in2="BackgroundImageFix" result="effect1_dropShadow_972_8361"/>
<feBlend mode="normal" in="SourceGraphic" in2="effect1_dropShadow_972_8361" result="shape"/>
</filter>
<clipPath id="clip0_972_8361">
<rect width="80" height="80" fill="white" transform="translate(0.5 0.5)"/>
</clipPath>
</defs>
</svg>
