<svg width="81" height="81" viewBox="0 0 81 81" fill="none" xmlns="http://www.w3.org/2000/svg">
<rect x="14.2656" y="14.7764" width="51.4472" height="51.4472" rx="25.7236" fill="#EEEEEE"/>
<path d="M42.1849 76.0672C39.1572 76.0672 34.2664 74.204 27.2794 70.4C18.5846 65.6644 14.6253 63.1026 14.3924 60.6183C14.3148 60.0749 14.4701 59.2209 15.4017 58.4446C16.0227 57.9012 16.7214 57.6683 17.7306 57.6683C18.4293 57.6683 21.1465 58.8328 21.457 58.5222L20.9912 56.7367C21.0688 56.6591 21.1465 56.5814 21.3017 56.5038C21.457 56.4262 21.5346 56.3485 21.6123 56.3485C21.9228 56.1933 22.2333 56.038 22.5438 56.038C22.932 55.9604 23.3202 55.8827 23.7083 55.8827C24.5623 55.8827 25.5715 56.1156 26.8913 56.6591L27.0465 56.7367L26.736 56.038C26.5807 55.4946 26.9689 54.9511 27.5123 54.7959C27.8229 54.7182 28.1334 54.7182 28.5216 54.7182C28.6768 54.7182 28.8321 54.7182 28.9873 54.7182C29.9966 54.7959 31.0834 55.2617 32.4032 56.1156L32.5584 56.1933V56.038C32.5584 55.9604 32.5584 55.9604 32.4808 55.8827V55.8051C32.4032 55.4946 32.4808 55.184 32.6361 54.9511C32.7913 54.7182 33.0242 54.563 33.2571 54.563C33.49 54.563 33.6453 54.4854 33.8782 54.4854C34.1111 54.4854 34.344 54.4854 34.6545 54.563C35.9743 54.7959 36.673 55.4946 37.6822 56.4262L37.8375 56.5814C38.3033 57.0472 38.8467 57.5907 39.623 58.2117L39.7006 58.2893L39.7783 58.367C40.0112 58.5222 40.1664 58.5999 40.2441 58.7551C40.3993 58.988 40.5546 59.1433 40.7099 59.3762L40.8651 59.5315H40.9428C41.1757 59.4538 41.4862 59.2986 41.7191 59.2209C43.0388 58.6775 44.281 57.9012 45.4454 57.1249L45.6007 57.0472C47.3086 55.9604 49.0165 54.8735 51.1126 54.563C51.6561 54.4854 52.2771 54.4854 52.8205 54.4854C55.0719 54.4854 57.0903 55.0288 58.5653 55.4946C60.6614 56.1933 62.5246 56.6591 64.3102 56.9696C65.2417 57.2025 65.7075 59.2986 65.7075 59.6867C65.8628 65.1986 62.9904 70.1671 62.5246 70.2448C60.2733 70.4 56.9351 70.7106 54.6061 71.9527L54.3732 72.1079L54.1403 72.2632C53.4416 72.6514 52.7429 73.0395 51.889 73.4277L51.1126 73.8159C47.8521 75.3685 45.2902 76.0672 42.4178 76.1448H42.1849V76.0672Z" fill="white"/>
<path d="M62.136 68.0717C59.2635 68.3046 55.9253 68.6927 53.3635 70.0901L52.9753 70.323C52.0437 70.7888 51.1121 71.3322 50.0253 71.798C46.9976 73.273 44.8239 73.8165 42.262 73.8941C40.4765 73.8941 36.5948 73.0401 28.2882 68.5375C24.4842 66.4414 16.6433 62.0939 16.488 60.386C16.488 60.386 16.488 60.2308 16.7209 60.0755C18.1183 58.911 23.8631 61.9387 27.9776 64.1124C28.9869 64.6558 29.9961 65.1993 30.9277 65.665C31.4711 65.9756 32.1698 65.7427 32.4027 65.1993C32.7132 64.6558 32.4803 63.9571 31.9369 63.7242C31.0053 63.2584 29.9961 62.715 28.9869 62.1716C26.1921 60.6966 23.6302 59.3768 21.3789 58.5229C21.767 58.6005 22.1552 58.5229 22.4657 58.2123C22.5434 58.1347 22.8539 57.9794 23.6302 57.9794C25.7263 57.9794 29.2198 60.2308 32.4027 62.2492L33.4119 62.8703C33.5672 63.0255 33.8001 63.0255 34.033 63.0255C34.4211 63.0255 34.7317 62.8703 34.9646 62.4821C35.2751 61.9387 35.1198 61.24 34.654 60.9295L33.6448 60.386C31.6264 59.1439 29.6079 57.8242 27.7447 56.8926C27.8224 56.8926 27.9 56.8926 27.9 56.8926C28.0553 56.8926 28.2882 56.8149 28.6763 56.8926C29.9961 56.9702 31.7816 58.3676 33.8001 59.9202C34.4211 60.386 35.0422 60.8518 35.6633 61.3176C35.8962 61.4729 36.129 61.5505 36.2843 61.5505C36.5948 61.5505 36.983 61.3953 37.2159 61.0847C37.6041 60.6189 37.4488 59.9202 36.983 59.5321C36.3619 59.0663 35.7409 58.6005 35.1198 58.1347C34.4211 57.5913 33.8001 57.1255 33.179 56.7373C33.2566 56.7373 33.3343 56.7373 33.4895 56.7373C33.5672 56.7373 33.8001 56.6597 34.1882 56.7373C34.8869 56.8149 35.2751 57.2031 36.2843 58.1347C36.7501 58.6005 37.3712 59.2215 38.2251 59.8426C38.458 59.9979 38.6909 60.0755 38.9238 60.0755C39.2344 60.0755 39.5449 59.9202 39.7778 59.6873C40.1659 59.2215 40.0883 58.5229 39.6225 58.1347C38.8462 57.5136 38.3028 56.9702 37.837 56.5044C36.7501 55.4952 35.9738 54.7189 34.5764 54.486C34.033 54.4083 33.5672 54.4083 33.179 54.486C32.558 54.5636 32.1698 55.1847 32.3251 55.8057C32.3251 55.8833 32.4027 55.961 32.4027 56.0386C31.2382 55.2623 30.0737 54.7189 28.9869 54.6412C28.4434 54.5636 27.9776 54.6412 27.5118 54.7189C26.8908 54.8741 26.5026 55.4175 26.6579 56.0386C26.7355 56.1939 26.8131 56.3491 26.8908 56.5044C25.7263 56.0386 24.6394 55.7281 23.7078 55.7281C22.1552 55.7281 21.3012 56.2715 20.9131 56.6597C20.5249 57.1255 20.5249 57.8242 20.9907 58.2123C21.0683 58.29 21.146 58.29 21.2236 58.3676C18.7394 57.436 16.6433 57.2031 15.3235 58.3676C14.3919 59.1439 14.2367 59.9979 14.3143 60.6189C14.5472 63.1032 18.5065 65.665 27.2789 70.4783C34.1106 74.2046 39.0791 76.1454 42.1844 76.1454C42.262 76.1454 42.3397 76.1454 42.4173 76.1454C45.2897 76.0678 47.8516 75.3691 51.1121 73.8165C52.199 73.273 53.2082 72.8072 54.1398 72.2638L54.2951 72.1862L54.528 72.0309C56.7017 70.8664 59.7293 70.4783 62.4465 70.323C63.0675 70.2454 63.5333 69.7019 63.4557 69.1585C63.2228 68.4598 62.757 68.0717 62.136 68.0717Z" fill="#404951"/>
<path fill-rule="evenodd" clip-rule="evenodd" d="M40.6534 51.8159H40.478C31.093 51.8159 24.5147 46.5533 24.6024 38.8348C24.6024 32.432 28.6371 28.9236 31.8824 26.1168C33.4612 24.8012 34.7768 23.6609 35.5662 22.3453C34.5137 21.3805 34.2506 19.2754 34.7768 18.2229C35.0399 17.6089 35.5662 17.2581 36.0925 16.995C35.1277 14.5391 32.4963 11.4692 31.6192 10.5044C31.2684 10.1536 31.2684 9.6273 31.4438 9.18875C31.6192 8.83791 32.0578 8.57478 32.5841 8.57478C33.5489 8.66249 35.5662 9.01333 38.1098 10.6798C38.0726 10.4568 38.0512 10.1865 38.0255 9.86234C37.9906 9.42151 37.9478 8.88097 37.8467 8.22394C37.759 7.69768 37.9344 7.25913 38.3729 6.90829C38.7238 6.64516 39.25 6.55745 39.6886 6.73287C41.3551 7.34684 42.3199 8.7502 42.8462 9.6273C44.2495 8.31165 45.4775 7.43455 46.6177 6.90829C47.2317 6.64516 47.8456 6.73287 48.2842 7.17142C48.7227 7.60997 48.8104 8.31165 48.5473 8.83791C47.6702 10.5044 45.8283 14.3637 45.1266 16.995C45.7406 17.1704 46.3546 17.6089 46.7054 18.3106C47.2317 19.3631 46.9685 21.6436 45.7406 22.5207C46.5014 23.7042 47.7511 24.8062 49.1755 26.0623C49.229 26.1095 49.2827 26.1569 49.3367 26.2045C52.582 29.0113 56.6167 32.5197 56.6167 38.9225C56.6167 46.5533 50.0384 51.8159 40.6534 51.8159ZM37.145 19.4508C37.0573 19.3631 36.9696 19.3631 36.9696 19.4508C36.8819 19.6263 36.9696 20.2402 37.145 20.5034C37.1545 20.5072 37.1644 20.5112 37.1749 20.5154C37.6482 20.7051 39.1144 21.2928 40.9165 21.2928C42.1445 21.2928 43.2847 21.0296 44.3372 20.5034C44.5126 20.2402 44.6004 19.714 44.5126 19.4508H44.3372C40.8288 21.2051 37.3204 19.5386 37.145 19.4508Z" fill="#006FBC"/>
<path d="M45.5321 39.8973C45.5321 41.1548 45.1694 42.1623 44.4439 42.92C43.7185 43.6777 42.8399 44.1775 41.8081 44.4193V45.9669C41.8081 46.5311 41.7517 46.9261 41.6389 47.1518C41.5421 47.3775 41.389 47.5306 41.1794 47.6112C40.986 47.6918 40.72 47.7321 40.3814 47.7321C40.0429 47.7321 39.7688 47.6918 39.5593 47.6112C39.3658 47.5306 39.2288 47.3855 39.1482 47.176C39.0353 46.9019 38.9789 46.4908 38.9789 45.9427V44.4435C38.3179 44.2984 37.7215 44.0565 37.1895 43.718C36.6575 43.3795 36.2867 43.0812 36.0771 42.8233L35.7627 42.4122C35.4242 41.9769 35.2549 41.5981 35.2549 41.2757C35.2549 40.9532 35.529 40.526 36.0771 39.994C36.3995 39.6877 36.7381 39.5346 37.0927 39.5346C37.4635 39.5346 37.9713 39.857 38.6162 40.5019C39.1159 41.1145 39.6802 41.4208 40.3089 41.4208C41.5018 41.4208 42.0983 40.9291 42.0983 39.9457C42.0983 39.591 41.8726 39.317 41.4212 39.1235C40.9698 38.9301 40.4217 38.7608 39.7769 38.6157C39.132 38.4545 38.4872 38.2449 37.8424 37.987C37.1975 37.729 36.6494 37.2857 36.198 36.657C35.7466 36.0283 35.5209 35.2303 35.5209 34.263C35.5209 33.2957 35.8272 32.4252 36.4398 31.6514C37.0524 30.8776 37.8988 30.3778 38.9789 30.1521V28.798C38.9789 28.2499 39.0273 27.8549 39.124 27.6131C39.2852 27.2262 39.7124 27.0327 40.4056 27.0327C40.8409 27.0327 41.1633 27.1294 41.3729 27.3229C41.5986 27.5002 41.7275 27.6937 41.7598 27.9033C41.792 28.1128 41.8081 28.4191 41.8081 28.8222V30.1763C42.2595 30.273 42.6706 30.4101 43.0414 30.5874C43.4122 30.7647 43.6701 30.9098 43.8152 31.0227L44.0328 31.2161L44.1296 31.2887C44.5326 31.6595 44.7341 31.9658 44.7341 32.2076C44.7341 32.4494 44.5407 32.8524 44.1537 33.4167C43.783 33.9809 43.3719 34.263 42.9205 34.263C42.6303 34.263 42.3804 34.1905 42.1709 34.0454C41.9774 33.9003 41.8243 33.7794 41.7114 33.6827C41.5986 33.5859 41.4938 33.5053 41.3971 33.4408C41.123 33.2635 40.7764 33.1748 40.3572 33.1748C39.9381 33.1748 39.5915 33.2796 39.3174 33.4892C39.0434 33.6827 38.9063 33.9567 38.9063 34.3114C38.9063 34.666 39.0676 34.9562 39.39 35.1819C39.7285 35.3915 40.1396 35.5366 40.6232 35.6172C41.1069 35.6817 41.6389 35.8026 42.2192 35.9799C42.7996 36.1411 43.3316 36.3346 43.8152 36.5603C44.2988 36.786 44.7019 37.189 45.0243 37.7693C45.3628 38.3336 45.5321 39.0429 45.5321 39.8973Z" fill="white"/>
<path d="M64.2319 56.8924C62.524 56.5819 60.6608 56.1161 58.4871 55.4174C56.5463 54.7963 53.9067 54.0977 50.9567 54.4858C48.783 54.7963 46.9975 55.9608 45.2895 57.0477C44.125 57.824 42.8829 58.6003 41.5632 59.1438C37.8368 60.6188 31.0828 64.4228 32.1696 68.0715C32.4025 68.9255 32.8683 69.4689 33.567 69.8571C34.0328 70.09 34.4986 70.1676 35.1197 70.1676C36.5171 70.1676 38.225 69.5465 40.5539 68.7702C41.175 68.5373 41.7961 68.3044 42.4171 68.1491C45.2119 67.1399 47.6961 66.286 51.112 65.9754C51.733 65.8978 52.1988 65.3544 52.1212 64.8109C52.0436 64.1899 51.5001 63.7241 50.9567 63.8017C47.2303 64.1122 44.6685 65.0438 41.7184 66.0531C41.0974 66.286 40.4763 66.5189 39.8553 66.6741C37.6039 67.4504 35.3526 68.2268 34.5762 67.8386C34.4986 67.8386 34.421 67.761 34.3433 67.4504C34.0328 66.3636 37.0605 63.3359 42.4171 61.2398C43.9698 60.6188 45.2895 59.7648 46.5317 58.9885C48.1619 57.9793 49.637 56.9701 51.3449 56.7372C53.7515 56.4266 56.0028 56.9701 57.866 57.5911C60.1173 58.3674 62.0582 58.8332 63.9213 59.1438C64.5424 59.2214 65.0858 58.8332 65.2411 58.2122C65.2411 57.5911 64.8529 57.0477 64.2319 56.8924Z" fill="#404951"/>
</svg>
