<svg width="270" height="534" viewBox="0 0 270 534" fill="none" xmlns="http://www.w3.org/2000/svg">
<g clip-path="url(#clip0_926_35818)">
<g clip-path="url(#clip1_926_35818)">
<path fill-rule="evenodd" clip-rule="evenodd" d="M200.486 94.3027H199.684V110.486H196.342V142.096H199.684V148.694H200.486V142.096H203.871V110.486H200.486V94.3027ZM145.33 104.379H146.132V119.894H149.518V151.503H146.132V158.503H145.33V151.503H141.988V119.894H145.33V104.379ZM48.341 136.3H47.5391V149.096H44.1543V161.891H47.5391V166.572H48.341V161.891H51.6836V149.096H48.341V136.3ZM26.5988 143.3H25.7969V161.891H22.4551V174.686H25.7969V181.686H26.5988V174.686H29.9844V161.891H26.5988V143.3ZM14.9277 156.095H15.7297V159.885H19.1172V163.853H15.7297V168.89H14.9277V163.853H11.5879V159.885H14.9277V156.095ZM-6.8125 158.502H-6.01056V168.267H-2.62695V199.876H-6.01056V208.613H-6.8125V199.876H-10.1562V168.267H-6.8125V158.502ZM-16.8836 179.68H-17.6855V192.252H-21.0293V208.034H-17.6855V214.677H-16.8836V208.034H-13.5V192.252H-16.8836V179.68ZM-28.5566 184.673H-27.7547V192.252H-24.3711V223.861H-27.7547V237.682H-28.5566V223.861H-31.9004V192.252H-28.5566V184.673ZM-61.1679 186.233H-60.366V191.94H-56.9805V204.736H-60.366V211.556H-61.1679V204.736H-64.5098V191.94H-61.1679V186.233ZM-50.2969 194.169H-49.4949V201.347H-46.1094V220.963H-49.4949V228.409H-50.2969V220.963H-53.6387V201.347H-50.2969V194.169ZM-38.6258 210.621H-39.4277V215.747H-42.7675V228.542H-39.4277V233.492H-38.6258V228.542H-35.2382V215.747H-38.6258V210.621ZM4.85468 158.502H4.05273V161.891H0.712891V174.686H4.05273V183.558H4.85468V174.686H8.2422V161.891H4.85468V158.502ZM36.668 149.72H37.4699V155.471H40.8594V168.266H37.4699V174.419H36.668V168.266H33.3301V155.471H36.668V149.72ZM58.4121 147.713H59.2141V152.483H62.5508V184.093H59.2141V200.499H58.4121V184.093H55.0215V152.483H58.4121V147.713ZM70.0832 168.891H69.2812V173.794H65.8945V186.589H69.2812V192.832H70.0832V186.589H73.4238V173.794H70.0832V168.891ZM80.1484 156.095H80.9504V168.267H84.293V181.062H80.9504V184.673H80.1484V181.062H76.7637V168.267H80.1484V156.095ZM91.8234 168.891H91.0215V174.687H87.6387V187.482H91.0215V197.201H91.8234V187.482H95.168V174.687H91.8234V168.891ZM101.893 162.158H102.694V170.941H106.037V202.551H102.694V213.696H101.893V202.551H98.5078V170.941H101.893V162.158ZM113.566 168.891H112.764V179.1H109.381V183.068H112.764V188.061H113.566V183.068H116.91V179.1H113.566V168.891ZM123.588 136.3H124.39V148.07H127.775V179.68H124.39V188.061H123.588V179.68H120.246V148.07H123.588V136.3ZM135.261 139.956H134.459V147.98H131.119V155.515H134.459V164.477H135.261V155.515H138.648V147.98H135.261V139.956ZM157.001 109.237H156.199V113.518H152.861V126.313H156.199V132.465H157.001V126.313H160.391V113.518H157.001V109.237ZM167.072 115.702H167.874V119.894H171.26V151.503H167.874V166.616H167.072V151.503H163.73V119.894H167.072V115.702ZM178.745 143.3H177.943V147.089H174.601V151.057H177.943V156.095H178.745V151.057H182.131V147.089H178.745V143.3ZM188.812 131.44H189.614V136.3H193V149.095H189.614V158.502H188.812V149.095H185.471V136.3H188.812V131.44ZM210.555 97.1113H211.357V101.525H214.742V125.467H211.357V134.249H210.555V125.467H207.213V101.525H210.555V97.1113ZM222.224 102.149H221.422V107.098H218.084V119.893H221.422V126.091H222.224V119.893H225.613V107.098H222.224V102.149ZM232.297 114.098H233.099V117.932H236.484V121.9H233.099V126.893H232.297V121.9H228.955V117.932H232.297V114.098ZM243.972 104.379H243.17V119.091H239.781V131.886H243.17V136.88H243.972V131.886H247.311V119.091H243.972V104.379Z" fill="#E3E3E6"/>
</g>
<path d="M128.555 515.651C128.044 515.812 97.5547 515.651 97.5547 515.651L97.7782 511.511C97.9378 509.199 101.992 494.851 101.992 494.851L120.062 494.723L126.096 507.851C127.597 510.901 128.427 511.286 128.523 514.688V515.651H128.555Z" fill="white" stroke="#775C42" stroke-linecap="round" stroke-linejoin="round"/>
<path d="M226.522 515.723H180.586L180.555 501.529L201.143 488.723L212.333 501.434C214.095 503.2 219.907 506.418 222.287 507.049C224.884 507.837 226.615 510.297 226.553 513.042L226.522 515.723Z" fill="white" stroke="#775C42" stroke-linecap="round" stroke-linejoin="round"/>
<path d="M87.9506 316.664L93.9525 286.056L159.025 284.723L164.995 316.95L198.795 465.13C198.795 465.13 203.312 473.893 204.196 477.036C205.239 480.592 205.555 492.848 205.555 492.848C201.859 493.388 190.487 494.721 180 502.723L131.827 366.1L122.477 500.024C113.158 494.055 106.24 496.214 100.144 501.738L86.6239 339.143C86.308 333.936 87.1293 321.776 87.9506 316.664Z" fill="#055E9C" stroke="#775C42" stroke-linecap="round" stroke-linejoin="round"/>
<path d="M131.555 369.723L133.555 345.723" stroke="#775C42" stroke-linecap="round" stroke-linejoin="round"/>
<path d="M68.6205 263.723L87.5547 282.07L82.1001 296.723L57.5547 278.628L68.6205 263.723Z" fill="#FFE4E4" stroke="#775C42" stroke-linecap="round" stroke-linejoin="round"/>
<path d="M206.431 239.882L220.323 222.728C220.953 221.932 221.205 220.882 221.048 219.864C220.827 218.654 220.701 217.222 220.701 215.726C220.733 214.103 221.331 211.302 221.835 208.183C222.182 205.955 221.993 203.409 221.804 201.786C221.678 200.768 222.591 199.877 223.6 200.099C224.45 200.258 225.364 200.736 226.057 201.85C227.002 203.377 227.632 207.801 228.01 211.239L238.185 206.815C238.185 206.815 250.219 200.481 254.062 199.431C255.731 198.985 258.63 200.8 256.55 203.091C255.133 204.619 246.47 208.565 242.816 210.698C241.052 211.748 242.658 212.066 242.658 212.066C242.658 212.066 256.361 205.351 259.984 205.096C262.315 204.937 264.804 207.292 263.197 208.406C262.315 209.011 258.031 211.334 254.282 213.275C257.275 211.907 260.646 210.729 262.378 211.302C262.945 211.493 263.323 211.907 263.575 212.352C264.174 213.435 263.701 214.803 262.567 215.312L259.323 216.808C260.047 216.649 260.709 216.554 261.244 216.585C262.063 216.617 264.457 218.209 262.536 219.991C260.614 221.773 249.526 226.388 249.526 226.388C249.526 226.388 241.997 232.371 236.862 232.212C236.736 232.212 236.61 232.212 236.484 232.18C235.633 232.117 234.846 232.499 234.342 233.199L220.859 251.053L206.431 239.882Z" fill="#FFE4E4" stroke="#775C42" stroke-linecap="round" stroke-linejoin="round"/>
<path d="M228.168 211.415C231.24 212.189 237.189 215.551 236.41 222.803" stroke="#775C42" stroke-linecap="round" stroke-linejoin="round"/>
<path d="M257.464 211.747L247.199 216.617" stroke="#775C42" stroke-linecap="round" stroke-linejoin="round"/>
<path d="M260.186 216.446L249.092 221.344" stroke="#775C42" stroke-linecap="round" stroke-linejoin="round"/>
<path d="M150.042 237.304L150.073 235.331C156.468 224.51 163.713 213.275 164.438 216.713C176.094 238.705 165.54 264.166 179.055 280.461C162.957 269.258 150.042 237.304 150.042 237.304Z" fill="#A3A5E6"/>
<path d="M87.3535 223.523L66.5938 248.602C68.0744 226.005 78.9425 227.119 77.1784 206.527L87.3535 223.523Z" fill="#A3A5E6"/>
<path fill-rule="evenodd" clip-rule="evenodd" d="M112.365 173.907C128.942 171.688 135.254 182.233 136.059 183.727L151.319 187.416L159.272 189.215C164.375 190.361 168.659 193.894 170.801 198.699L191.748 245.869L208.855 232.531L212.415 230.621L219.156 223.651C222.559 227.948 227.567 232.149 232.324 236.127C232.324 236.127 227.788 242.333 225.772 245.643C225.605 245.916 225.449 246.431 225.279 246.99C225.033 247.801 224.759 248.703 224.386 249.081C221.546 251.965 218.552 255.575 215.429 259.339C205.802 270.945 194.952 284.025 183.654 281.862C176.113 280.421 169.582 272.38 164.397 263.016C163.789 269.475 163.17 275.354 162.654 280.255L162.642 280.366C162.295 283.612 159.618 286.318 159.618 286.318C136.558 291.728 93.8104 288.036 93.8104 288.036C93.8104 288.036 87.3841 283.644 87.069 282.18C84.557 270.634 81.634 251.003 79.2295 233.339L62.3192 253.765L74.2493 266.617L75.2889 270.372L82.1562 277.215C77.9665 278.711 72.5482 286.986 73.8083 291.219C73.0896 290.738 72.3205 290.199 71.4655 289.6C69.8845 288.492 68.0099 287.178 65.6178 285.649C65.2785 285.431 64.1693 285.159 63.0402 284.883C61.8628 284.595 60.6639 284.301 60.294 284.058C53.5526 279.761 47.4098 275.56 39.8178 269.227C31.5658 262.342 30.3732 255.166 34.6833 245.859C34.7038 245.808 34.7245 245.758 34.7455 245.708C34.7757 245.649 34.8065 245.589 34.8377 245.529C35.2099 244.745 35.6207 243.945 36.0691 243.129L36.665 242.332C45.0596 228.589 67.4706 200.912 74.3433 195.486C77.9233 193.703 84.4695 191.818 86.9409 191.152L102.032 185.936C102.983 183.424 106.605 174.669 112.365 173.907Z" fill="#C9D9FF"/>
<path d="M136.059 183.727L135.941 184.213C135.804 184.179 135.686 184.089 135.619 183.964L136.059 183.727ZM112.365 173.907L112.432 174.403L112.431 174.403L112.365 173.907ZM151.319 187.416L151.209 187.904L151.201 187.902L151.319 187.416ZM159.272 189.215L159.162 189.703L159.161 189.703L159.272 189.215ZM170.801 198.699L171.258 198.496L171.258 198.497L170.801 198.699ZM191.748 245.869L192.055 246.263C191.934 246.358 191.776 246.391 191.626 246.354C191.477 246.316 191.353 246.212 191.291 246.072L191.748 245.869ZM208.855 232.531L208.548 232.137C208.57 232.119 208.594 232.104 208.619 232.09L208.855 232.531ZM212.415 230.621L212.774 230.969C212.739 231.006 212.697 231.037 212.651 231.062L212.415 230.621ZM219.156 223.651L218.797 223.304C218.897 223.2 219.037 223.145 219.181 223.152C219.325 223.159 219.459 223.228 219.548 223.341L219.156 223.651ZM232.324 236.127L232.645 235.744C232.847 235.913 232.883 236.21 232.728 236.422L232.324 236.127ZM225.772 245.643L226.199 245.903L226.198 245.905L225.772 245.643ZM225.279 246.99L225.758 247.135L225.758 247.135L225.279 246.99ZM224.386 249.081L224.029 248.73L224.03 248.729L224.386 249.081ZM215.429 259.339L215.814 259.659L215.429 259.339ZM183.654 281.862L183.748 281.371L183.748 281.371L183.654 281.862ZM164.397 263.016L163.899 262.969C163.92 262.751 164.08 262.571 164.295 262.526C164.509 262.482 164.728 262.582 164.834 262.774L164.397 263.016ZM162.654 280.255L163.151 280.307V280.307L162.654 280.255ZM162.642 280.366L163.139 280.419L163.139 280.419L162.642 280.366ZM159.618 286.318L159.973 286.669C159.907 286.736 159.823 286.783 159.732 286.804L159.618 286.318ZM93.8104 288.036L93.7674 288.534C93.6817 288.527 93.5993 288.498 93.5283 288.449L93.8104 288.036ZM87.069 282.18L87.5576 282.074L87.5579 282.075L87.069 282.18ZM79.2295 233.339L78.8444 233.02C78.9709 232.868 79.1759 232.804 79.3668 232.859C79.5576 232.913 79.6982 233.075 79.725 233.272L79.2295 233.339ZM62.3192 253.765L61.9528 254.105C61.7821 253.921 61.7741 253.639 61.9341 253.446L62.3192 253.765ZM74.2493 266.617L74.6158 266.277C74.6702 266.335 74.7098 266.406 74.7312 266.484L74.2493 266.617ZM75.2889 270.372L74.9359 270.727C74.8745 270.665 74.8301 270.589 74.807 270.506L75.2889 270.372ZM82.1562 277.215L82.5092 276.861C82.6307 276.982 82.6817 277.157 82.6442 277.324C82.6067 277.492 82.4859 277.628 82.3244 277.686L82.1562 277.215ZM73.8083 291.219L74.2875 291.076C74.3476 291.278 74.2747 291.496 74.1051 291.621C73.9355 291.746 73.7056 291.751 73.5304 291.634L73.8083 291.219ZM71.4655 289.6L71.7525 289.191L71.4655 289.6ZM65.6178 285.649L65.3486 286.07L65.3474 286.07L65.6178 285.649ZM63.0402 284.883L63.159 284.397L63.0402 284.883ZM60.294 284.058L60.5628 283.636L60.5691 283.64L60.294 284.058ZM39.8178 269.227L39.4975 269.611L39.4975 269.611L39.8178 269.227ZM34.6833 245.859L35.1463 246.048C35.1434 246.055 35.1403 246.062 35.137 246.069L34.6833 245.859ZM34.7455 245.708L34.2837 245.516C34.2889 245.503 34.2945 245.491 34.3007 245.479L34.7455 245.708ZM34.8377 245.529L35.2894 245.744C35.2867 245.749 35.284 245.755 35.2811 245.76L34.8377 245.529ZM36.0691 243.129L35.6309 242.888C35.6421 242.868 35.6548 242.848 35.6687 242.83L36.0691 243.129ZM36.665 242.332L37.0917 242.593C37.0836 242.606 37.0748 242.619 37.0654 242.632L36.665 242.332ZM74.3433 195.486L74.0334 195.093C74.0604 195.072 74.0896 195.053 74.1204 195.038L74.3433 195.486ZM86.9409 191.152L87.1043 191.625C87.0933 191.629 87.0822 191.632 87.0709 191.635L86.9409 191.152ZM102.032 185.936L102.5 186.113C102.447 186.252 102.336 186.36 102.195 186.409L102.032 185.936ZM135.619 183.964C135.239 183.26 133.508 180.324 129.846 177.838C126.195 175.361 120.597 173.31 112.432 174.403L112.299 173.412C120.711 172.285 126.556 174.397 130.407 177.011C134.247 179.617 136.073 182.7 136.499 183.489L135.619 183.964ZM151.201 187.902L135.941 184.213L136.177 183.241L151.436 186.93L151.201 187.902ZM159.161 189.703L151.209 187.904L151.429 186.929L159.382 188.728L159.161 189.703ZM170.344 198.903C168.266 194.24 164.109 190.814 159.162 189.703L159.381 188.727C164.64 189.908 169.052 193.548 171.258 198.496L170.344 198.903ZM191.291 246.072L170.344 198.902L171.258 198.497L192.205 245.666L191.291 246.072ZM209.163 232.925L192.055 246.263L191.44 245.474L208.548 232.137L209.163 232.925ZM212.651 231.062L209.092 232.972L208.619 232.09L212.179 230.181L212.651 231.062ZM219.516 223.999L212.774 230.969L212.056 230.274L218.797 223.304L219.516 223.999ZM232.003 236.511C227.257 232.542 222.205 228.307 218.764 223.962L219.548 223.341C222.912 227.589 227.877 231.756 232.645 235.744L232.003 236.511ZM225.345 245.383C226.363 243.712 228.01 241.321 229.395 239.356C230.09 238.372 230.721 237.491 231.178 236.856C231.407 236.539 231.593 236.283 231.721 236.107C231.785 236.018 231.835 235.95 231.869 235.903C231.886 235.88 231.899 235.862 231.907 235.85C231.912 235.844 231.915 235.84 231.917 235.837C231.918 235.835 231.919 235.834 231.92 235.833C231.92 235.833 231.92 235.833 231.92 235.833C231.92 235.832 231.92 235.832 231.92 235.832C231.921 235.832 231.921 235.832 232.324 236.127C232.728 236.422 232.728 236.422 232.728 236.422C232.728 236.422 232.728 236.422 232.728 236.423C232.728 236.423 232.727 236.423 232.727 236.423C232.727 236.424 232.726 236.425 232.725 236.427C232.723 236.43 232.719 236.434 232.715 236.44C232.706 236.452 232.694 236.469 232.677 236.492C232.643 236.538 232.594 236.606 232.53 236.694C232.402 236.87 232.218 237.125 231.99 237.441C231.533 238.074 230.904 238.951 230.213 239.932C228.826 241.898 227.197 244.264 226.199 245.903L225.345 245.383ZM224.801 246.844C224.885 246.568 224.969 246.289 225.054 246.045C225.137 245.807 225.232 245.567 225.346 245.382L226.198 245.905C226.144 245.992 226.078 246.146 225.999 246.374C225.921 246.595 225.843 246.853 225.758 247.135L224.801 246.844ZM224.03 248.729C224.139 248.619 224.271 248.384 224.414 248.016C224.552 247.664 224.676 247.255 224.801 246.844L225.758 247.135C225.636 247.536 225.5 247.984 225.346 248.38C225.198 248.76 225.006 249.165 224.741 249.432L224.03 248.729ZM215.044 259.02C218.163 255.26 221.172 251.632 224.029 248.73L224.742 249.431C221.921 252.297 218.941 255.889 215.814 259.659L215.044 259.02ZM183.748 281.371C189.17 282.409 194.553 279.802 199.848 275.38C205.134 270.965 210.223 264.832 215.044 259.02L215.814 259.659C211.008 265.452 205.859 271.662 200.489 276.148C195.127 280.626 189.436 283.478 183.56 282.353L183.748 281.371ZM164.834 262.774C167.416 267.435 170.32 271.746 173.503 275.064C176.688 278.385 180.118 280.677 183.748 281.371L183.56 282.353C179.648 281.605 176.042 279.157 172.781 275.756C169.517 272.353 166.564 267.961 163.96 263.258L164.834 262.774ZM162.156 280.203C162.673 275.301 163.292 269.425 163.899 262.969L164.895 263.063C164.287 269.525 163.667 275.406 163.151 280.307L162.156 280.203ZM162.145 280.314L162.156 280.203L163.151 280.307L163.139 280.419L162.145 280.314ZM159.618 286.318C159.262 285.966 159.262 285.966 159.262 285.966C159.262 285.966 159.262 285.966 159.262 285.966C159.262 285.966 159.262 285.966 159.262 285.966C159.262 285.966 159.262 285.966 159.263 285.966C159.264 285.965 159.265 285.963 159.267 285.961C159.271 285.957 159.278 285.95 159.286 285.941C159.304 285.923 159.331 285.894 159.365 285.857C159.435 285.781 159.536 285.668 159.659 285.522C159.906 285.23 160.239 284.806 160.582 284.284C161.274 283.234 161.983 281.824 162.145 280.313L163.139 280.419C162.954 282.155 162.151 283.721 161.417 284.834C161.048 285.395 160.69 285.85 160.424 286.166C160.291 286.325 160.18 286.449 160.101 286.534C160.062 286.576 160.031 286.609 160.009 286.632C159.998 286.643 159.99 286.652 159.984 286.659C159.981 286.662 159.978 286.664 159.976 286.666C159.976 286.667 159.975 286.668 159.974 286.668C159.974 286.669 159.974 286.669 159.974 286.669C159.973 286.669 159.973 286.669 159.973 286.669C159.973 286.669 159.973 286.669 159.618 286.318ZM93.8104 288.036C93.8534 287.538 93.8536 287.538 93.8539 287.538C93.8542 287.538 93.8546 287.538 93.8552 287.538C93.8565 287.538 93.8584 287.539 93.8609 287.539C93.866 287.539 93.8736 287.54 93.8838 287.541C93.9043 287.543 93.9348 287.545 93.9754 287.548C94.0565 287.555 94.1775 287.565 94.3363 287.578C94.6541 287.604 95.1235 287.641 95.7294 287.686C96.9412 287.776 98.6987 287.899 100.88 288.03C105.243 288.291 111.3 288.583 118.076 288.706C131.643 288.953 148.04 288.521 159.503 285.831L159.732 286.804C148.136 289.525 131.629 289.953 118.058 289.706C111.264 289.582 105.193 289.29 100.82 289.028C98.6336 288.897 96.8712 288.774 95.6552 288.683C95.0471 288.638 94.5756 288.601 94.2559 288.575C94.0961 288.562 93.9742 288.552 93.8921 288.545C93.8511 288.542 93.82 288.539 93.7991 288.537C93.7887 288.536 93.7808 288.536 93.7755 288.535C93.7729 288.535 93.7709 288.535 93.7695 288.535C93.7688 288.535 93.7683 288.535 93.768 288.535C93.7676 288.534 93.7674 288.534 93.8104 288.036ZM87.5579 282.075C87.5717 282.14 87.6438 282.292 87.8413 282.542C88.027 282.777 88.2857 283.051 88.6006 283.351C89.2294 283.952 90.047 284.626 90.865 285.263C91.6809 285.898 92.4883 286.488 93.0923 286.921C93.3942 287.137 93.6447 287.313 93.8197 287.435C93.9071 287.496 93.9756 287.543 94.0221 287.575C94.0454 287.591 94.0631 287.603 94.075 287.611C94.0809 287.616 94.0854 287.619 94.0883 287.621C94.0898 287.622 94.0909 287.622 94.0916 287.623C94.0919 287.623 94.0922 287.623 94.0924 287.623C94.0924 287.623 94.0925 287.623 94.0925 287.624C94.0925 287.624 94.0925 287.624 93.8104 288.036C93.5283 288.449 93.5282 288.449 93.5282 288.449C93.5281 288.449 93.528 288.449 93.5279 288.449C93.5277 288.449 93.5273 288.448 93.5269 288.448C93.5261 288.448 93.5248 288.447 93.5232 288.446C93.52 288.443 93.5152 288.44 93.509 288.436C93.4965 288.427 93.4781 288.415 93.4542 288.398C93.4065 288.365 93.3366 288.317 93.2477 288.255C93.0699 288.131 92.816 287.952 92.5104 287.734C91.8997 287.297 91.0808 286.698 90.2508 286.052C89.4227 285.407 88.5747 284.709 87.91 284.075C87.5781 283.758 87.283 283.448 87.057 283.162C86.8427 282.892 86.6451 282.587 86.5802 282.285L87.5579 282.075ZM79.725 233.272C82.1297 250.938 85.0504 270.55 87.5576 282.074L86.5805 282.287C84.0636 270.718 81.1382 251.068 78.7341 233.407L79.725 233.272ZM61.9341 253.446L78.8444 233.02L79.6147 233.658L62.7044 254.083L61.9341 253.446ZM73.8828 266.957L61.9528 254.105L62.6857 253.424L74.6158 266.277L73.8828 266.957ZM74.807 270.506L73.7674 266.75L74.7312 266.484L75.7707 270.239L74.807 270.506ZM81.8033 277.569L74.9359 270.727L75.6418 270.018L82.5092 276.861L81.8033 277.569ZM73.3291 291.361C72.9759 290.175 73.1018 288.758 73.5109 287.319C73.9224 285.87 74.6343 284.35 75.5132 282.928C76.3927 281.504 77.4482 280.165 78.5578 279.081C79.6618 278.003 80.8462 277.152 81.9881 276.744L82.3244 277.686C81.3714 278.026 80.3074 278.77 79.2565 279.797C78.2111 280.818 77.2052 282.092 76.3639 283.453C75.5221 284.816 74.8538 286.251 74.4728 287.592C74.0894 288.941 74.0106 290.146 74.2875 291.076L73.3291 291.361ZM71.7525 289.191C72.6087 289.791 73.373 290.326 74.0861 290.803L73.5304 291.634C72.8063 291.15 72.0323 290.608 71.1785 290.009L71.7525 289.191ZM65.887 285.228C68.2889 286.763 70.1712 288.082 71.7525 289.191L71.1785 290.009C69.5979 288.901 67.7309 287.593 65.3486 286.07L65.887 285.228ZM63.159 284.397C63.7211 284.535 64.2898 284.674 64.7606 284.807C64.9962 284.873 65.2142 284.939 65.3988 285.005C65.5747 285.068 65.7528 285.141 65.8882 285.229L65.3474 286.07C65.3131 286.048 65.2254 286.005 65.0626 285.947C64.9085 285.892 64.715 285.833 64.4897 285.769C64.0388 285.642 63.4884 285.508 62.9213 285.369L63.159 284.397ZM60.5691 283.64C60.6102 283.667 60.7084 283.715 60.884 283.779C61.0509 283.839 61.2596 283.904 61.5007 283.973C61.9833 284.11 62.5678 284.253 63.159 284.397L62.9213 285.369C62.3352 285.225 61.7315 285.078 61.2279 284.935C60.9758 284.863 60.7418 284.791 60.5431 284.719C60.3531 284.65 60.1627 284.57 60.0189 284.475L60.5691 283.64ZM40.1381 268.843C47.7087 275.158 53.8328 279.347 60.5627 283.636L60.0253 284.479C53.2724 280.176 47.1108 275.962 39.4975 269.611L40.1381 268.843ZM35.137 246.069C33.0083 250.666 32.2678 254.673 33.0294 258.35C33.7903 262.023 36.0676 265.447 40.1381 268.843L39.4975 269.611C35.316 266.122 32.871 262.515 32.0502 258.553C31.23 254.593 32.0483 250.359 34.2296 245.649L35.137 246.069ZM35.2073 245.899C35.1867 245.949 35.1664 245.998 35.1463 246.048L34.2204 245.67C34.2413 245.619 34.2624 245.567 34.2837 245.516L35.2073 245.899ZM35.2811 245.76C35.2503 245.819 35.2201 245.878 35.1903 245.936L34.3007 245.479C34.3314 245.419 34.3626 245.359 34.3943 245.298L35.2811 245.76ZM36.5073 243.37C36.0632 244.178 35.657 244.969 35.2894 245.744L34.3859 245.315C34.7628 244.521 35.1782 243.712 35.6309 242.888L36.5073 243.37ZM37.0654 242.632L36.4695 243.429L35.6687 242.83L36.2647 242.033L37.0654 242.632ZM74.6531 195.878C72.9728 197.205 70.3092 199.922 67.1096 203.496C63.9181 207.06 60.2158 211.451 56.4641 216.104C48.9568 225.415 41.2717 235.75 37.0917 242.593L36.2383 242.072C40.4529 235.172 48.1706 224.797 55.6856 215.476C59.4451 210.814 63.1588 206.409 66.3646 202.829C69.5623 199.257 72.2774 196.48 74.0334 195.093L74.6531 195.878ZM87.0709 191.635C84.5926 192.302 78.0945 194.176 74.5662 195.933L74.1204 195.038C77.7522 193.229 84.3464 191.333 86.811 190.67L87.0709 191.635ZM102.195 186.409L87.1043 191.625L86.7776 190.68L101.869 185.464L102.195 186.409ZM112.431 174.403C109.777 174.754 107.539 176.969 105.81 179.544C104.098 182.095 102.971 184.869 102.5 186.113L101.564 185.759C102.045 184.491 103.204 181.632 104.98 178.987C106.74 176.365 109.193 173.822 112.3 173.411L112.431 174.403Z" fill="#775C42"/>
<path d="M79.6848 237.408L76.9727 216.446" stroke="#775C42" stroke-linecap="round" stroke-linejoin="round"/>
<path d="M194.555 243.723L179.555 254.723" stroke="#775C42" stroke-linecap="round" stroke-linejoin="round"/>
<rect x="219.211" y="147.546" width="45.3558" height="45.7318" rx="22.6779" fill="white" stroke="#775C42" stroke-linecap="round" stroke-linejoin="round"/>
<rect x="223.908" y="152.283" width="35.9594" height="36.2575" rx="17.9797" fill="#FACC00" stroke="#775C42" stroke-linecap="round" stroke-linejoin="round"/>
<path d="M247.967 174.297C247.967 175.764 247.544 176.939 246.698 177.823C245.851 178.707 244.826 179.29 243.623 179.572V181.378C243.623 182.036 243.557 182.497 243.425 182.76C243.312 183.024 243.134 183.203 242.889 183.297C242.663 183.391 242.353 183.438 241.958 183.438C241.563 183.438 241.243 183.391 240.999 183.297C240.773 183.203 240.613 183.033 240.519 182.789C240.387 182.469 240.322 181.989 240.322 181.35V179.601C239.55 179.431 238.855 179.149 238.234 178.754C237.613 178.359 237.181 178.011 236.936 177.71L236.569 177.231C236.174 176.723 235.977 176.281 235.977 175.905C235.977 175.529 236.297 175.03 236.936 174.409C237.312 174.052 237.707 173.873 238.121 173.873C238.554 173.873 239.146 174.25 239.898 175.002C240.482 175.717 241.14 176.074 241.873 176.074C243.265 176.074 243.961 175.5 243.961 174.353C243.961 173.939 243.698 173.619 243.171 173.394C242.645 173.168 242.005 172.971 241.253 172.801C240.5 172.613 239.748 172.369 238.996 172.068C238.243 171.767 237.604 171.25 237.077 170.516C236.55 169.782 236.287 168.851 236.287 167.723C236.287 166.594 236.645 165.579 237.359 164.676C238.074 163.773 239.061 163.19 240.322 162.927V161.347C240.322 160.707 240.378 160.246 240.491 159.964C240.679 159.513 241.177 159.287 241.986 159.287C242.494 159.287 242.87 159.4 243.115 159.626C243.378 159.833 243.529 160.058 243.566 160.303C243.604 160.547 243.623 160.905 243.623 161.375V162.955C244.149 163.068 244.629 163.228 245.061 163.434C245.494 163.641 245.795 163.811 245.964 163.942L246.218 164.168L246.331 164.253C246.801 164.685 247.036 165.043 247.036 165.325C247.036 165.607 246.811 166.077 246.359 166.735C245.927 167.394 245.447 167.723 244.92 167.723C244.582 167.723 244.29 167.638 244.046 167.469C243.82 167.3 243.641 167.159 243.51 167.046C243.378 166.933 243.256 166.839 243.143 166.764C242.823 166.557 242.419 166.453 241.93 166.453C241.441 166.453 241.036 166.576 240.717 166.82C240.397 167.046 240.237 167.366 240.237 167.779C240.237 168.193 240.425 168.532 240.801 168.795C241.196 169.039 241.676 169.209 242.24 169.303C242.804 169.378 243.425 169.519 244.102 169.726C244.779 169.914 245.4 170.14 245.964 170.403C246.529 170.666 246.999 171.137 247.375 171.814C247.77 172.472 247.967 173.3 247.967 174.297Z" fill="#775C42"/>
<path d="M229.491 240.073V235.713C229.711 235.936 229.932 236.127 230.152 236.318V239.118C229.963 239.437 229.743 239.755 229.491 240.073Z" fill="#99B0FA"/>
<path d="M166.769 202.881C167.176 209.69 167.746 226.216 166.769 237.851C165.792 249.485 164.882 258.315 164.549 261.275" stroke="#775C42" stroke-linecap="round" stroke-linejoin="round"/>
<path d="M132.464 288.704C132.59 288.704 132.716 288.608 132.779 288.481C132.905 287.94 133.283 287.176 133.756 286.221C134.354 284.98 135.11 283.421 135.709 281.638C137.063 277.692 134.701 259.455 133.252 248.571C132.748 244.752 132.37 241.728 132.307 240.742C131.645 224.892 128.211 197.203 128.18 196.949C128.148 196.789 127.991 196.662 127.833 196.662C127.676 196.694 127.55 196.853 127.55 197.012C127.581 197.299 131.015 224.924 131.677 240.773C131.708 241.76 132.086 244.656 132.622 248.666C134.039 259.519 136.402 277.628 135.079 281.448C134.48 283.198 133.724 284.726 133.126 285.967C132.653 286.953 132.275 287.749 132.118 288.354C132.086 288.513 132.181 288.704 132.338 288.736C132.433 288.704 132.433 288.704 132.464 288.704Z" fill="#775C42" stroke="#775C42" stroke-width="0.5"/>
<path d="M61.6499 253.409C61.7129 253.409 61.7759 253.409 61.8074 253.377C61.9649 253.281 61.9964 253.09 61.9019 252.931C59.9488 249.717 56.5781 245.547 51.6638 244.083C48.7027 243.192 46.592 243.701 46.4975 243.701C46.34 243.733 46.214 243.924 46.277 244.083C46.3085 244.243 46.4975 244.37 46.6551 244.306C46.7496 244.274 54.8455 242.46 61.3979 253.249C61.4294 253.377 61.5554 253.409 61.6499 253.409Z" fill="#775C42" stroke="#775C42" stroke-width="0.5"/>
<path d="M225.96 245.961C226.055 245.961 226.149 245.929 226.212 245.834C226.307 245.674 226.275 245.483 226.118 245.388C220.07 241.155 214.462 235.076 212.761 230.971C212.698 230.812 212.509 230.716 212.352 230.812C212.194 230.875 212.1 231.066 212.194 231.225C213.927 235.426 219.629 241.632 225.771 245.929C225.834 245.961 225.897 245.961 225.96 245.961Z" fill="#775C42" stroke="#775C42" stroke-width="0.5"/>
<path d="M65.4596 285.044C65.6171 285.044 65.7746 284.917 65.7746 284.758C66.3102 274.414 74.8156 270.309 74.9101 270.277C75.0677 270.213 75.1307 270.022 75.0677 269.863C75.0047 269.704 74.8156 269.64 74.6581 269.704C74.5636 269.736 65.7116 274.001 65.1446 284.726C65.1446 284.885 65.2706 285.044 65.4596 285.044Z" fill="#775C42" stroke="#775C42" stroke-width="0.5"/>
<path d="M60.7326 247.743C60.7956 247.743 60.8271 247.743 60.8901 247.711C61.0476 247.616 61.1107 247.425 61.0161 247.266C57.866 241.314 53.3927 239.245 53.2037 239.182C53.0462 239.118 52.8572 239.182 52.7942 239.341C52.7312 239.5 52.7942 239.691 52.9517 239.754C52.9832 239.786 57.3934 241.823 60.4491 247.584C60.5121 247.679 60.6381 247.743 60.7326 247.743Z" fill="#775C42" stroke="#775C42" stroke-width="0.5"/>
<path d="M142.679 137.12C142.679 137.12 151.924 124.667 143.657 117.188C139.899 113.771 132.946 115.403 130.353 116.238C129.113 116.618 127.835 116.808 126.558 116.77C121.259 116.618 108.331 117.909 100.74 123.262C91.9463 129.451 94.9527 141.031 97.0948 146.498C99.0865 151.548 104.423 161.913 106.79 166.507C107.392 167.646 108.895 167.95 109.872 167.077L142.679 137.12Z" fill="#644839" stroke="#775C42" stroke-miterlimit="10"/>
<path d="M130.987 178.278C132.039 178.278 133.129 178.24 134.257 178.126C134.444 178.126 134.632 177.936 134.595 177.709C134.595 177.519 134.407 177.329 134.181 177.367C130.235 177.709 126.778 177.443 123.809 176.57C121.554 175.886 119.563 174.861 117.872 173.494C117.721 173.38 117.458 173.38 117.346 173.532C117.233 173.684 117.233 173.95 117.383 174.064C119.149 175.507 121.216 176.57 123.584 177.291C125.801 177.974 128.281 178.278 130.987 178.278Z" fill="#C76548"/>
<path fill-rule="evenodd" clip-rule="evenodd" d="M113.478 153.636C113.478 153.636 111.336 147.106 112.163 144.6C112.695 142.987 113.146 142.118 113.468 141.498C113.873 140.718 114.072 140.334 113.967 139.36C113.945 139.191 113.88 138.956 113.797 138.659C113.453 137.417 112.809 135.095 113.779 132.033C114.449 129.966 118.298 129.471 120.664 129.167C120.818 129.147 120.967 129.128 121.107 129.109L134.26 126.641C138.62 126.186 141.776 127.932 143.28 131.729C144.294 134.311 144.933 139.056 145.309 142.625L146.85 158.306C147.865 165.999 142.582 176.238 135.087 177.595C134.971 179.896 134.704 182.466 134.103 183.876C131.993 188.828 129.372 192.541 126.888 193.263C122.498 193.744 107.387 181.332 107.728 176.312L110.061 161.865C109.899 161.978 109.723 162.083 109.53 162.178C103.442 165.178 98.9703 158.002 98.2187 155.686C97.3168 152.8 97.7302 146.84 103.179 146.384C107.432 146.028 109.945 151.756 110.844 154.287L113.478 153.636Z" fill="#FFE4E4"/>
<path d="M112.163 144.6L112.638 144.756L112.163 144.6ZM113.478 153.636L113.954 153.48C113.997 153.612 113.983 153.756 113.916 153.878C113.849 154 113.733 154.088 113.598 154.121L113.478 153.636ZM113.468 141.498L113.024 141.268V141.268L113.468 141.498ZM113.967 139.36L114.463 139.296L114.464 139.307L113.967 139.36ZM113.797 138.659L113.316 138.792L113.797 138.659ZM113.779 132.033L113.302 131.882L113.304 131.878L113.779 132.033ZM120.664 129.167L120.6 128.671V128.671L120.664 129.167ZM121.107 129.109L121.199 129.6C121.191 129.602 121.182 129.604 121.173 129.605L121.107 129.109ZM134.26 126.641L134.168 126.15C134.181 126.147 134.195 126.145 134.208 126.144L134.26 126.641ZM143.28 131.729L143.744 131.545L143.745 131.546L143.28 131.729ZM145.309 142.625L145.806 142.573L145.806 142.576L145.309 142.625ZM146.85 158.306L146.354 158.371C146.353 158.366 146.353 158.36 146.352 158.355L146.85 158.306ZM135.087 177.595L134.587 177.57C134.599 177.338 134.769 177.144 134.998 177.103L135.087 177.595ZM134.103 183.876L134.563 184.072L134.563 184.073L134.103 183.876ZM126.888 193.263L127.027 193.743C127 193.751 126.971 193.757 126.942 193.76L126.888 193.263ZM107.728 176.312L107.229 176.278C107.23 176.263 107.232 176.248 107.234 176.233L107.728 176.312ZM110.061 161.865L109.775 161.456C109.939 161.341 110.157 161.335 110.327 161.442C110.497 161.549 110.587 161.747 110.555 161.945L110.061 161.865ZM109.53 162.178L109.752 162.627L109.751 162.627L109.53 162.178ZM98.2187 155.686L97.7431 155.84L97.7415 155.835L98.2187 155.686ZM103.179 146.384L103.138 145.886L103.179 146.384ZM110.844 154.287L110.964 154.772C110.714 154.834 110.459 154.696 110.373 154.454L110.844 154.287ZM112.638 144.756C112.464 145.282 112.435 146.076 112.518 147.025C112.6 147.96 112.785 148.987 112.999 149.949C113.212 150.909 113.451 151.793 113.637 152.438C113.73 152.76 113.809 153.021 113.866 153.202C113.894 153.292 113.916 153.362 113.931 153.41C113.938 153.433 113.944 153.451 113.948 153.463C113.95 153.469 113.951 153.473 113.952 153.476C113.953 153.478 113.953 153.479 113.953 153.479C113.953 153.48 113.954 153.48 113.954 153.48C113.954 153.48 113.954 153.48 113.954 153.48C113.954 153.48 113.954 153.48 113.478 153.636C113.003 153.792 113.003 153.792 113.003 153.792C113.003 153.791 113.003 153.791 113.003 153.791C113.003 153.791 113.003 153.791 113.003 153.79C113.003 153.789 113.002 153.788 113.002 153.786C113 153.783 112.999 153.778 112.997 153.771C112.992 153.758 112.986 153.739 112.978 153.714C112.963 153.665 112.939 153.592 112.911 153.499C112.853 153.312 112.771 153.044 112.676 152.715C112.486 152.057 112.242 151.152 112.023 150.166C111.804 149.182 111.609 148.107 111.522 147.112C111.436 146.133 111.449 145.17 111.688 144.443L112.638 144.756ZM113.911 141.729C113.596 142.336 113.158 143.179 112.638 144.756L111.688 144.443C112.232 142.795 112.696 141.9 113.024 141.268L113.911 141.729ZM114.464 139.307C114.521 139.838 114.499 140.243 114.39 140.635C114.286 141.011 114.108 141.35 113.911 141.729L113.024 141.268C113.233 140.866 113.356 140.623 113.427 140.368C113.493 140.13 113.518 139.857 113.47 139.414L114.464 139.307ZM114.279 138.525C114.357 138.806 114.435 139.083 114.463 139.296L113.471 139.424C113.455 139.3 113.403 139.106 113.316 138.792L114.279 138.525ZM114.256 132.184C113.331 135.103 113.941 137.306 114.279 138.525L113.316 138.792C112.965 137.528 112.287 135.088 113.302 131.882L114.256 132.184ZM120.727 129.663C119.536 129.816 118.027 130.011 116.735 130.416C115.404 130.832 114.507 131.41 114.255 132.187L113.304 131.878C113.722 130.588 115.084 129.885 116.436 129.461C117.827 129.026 119.425 128.822 120.6 128.671L120.727 129.663ZM121.173 129.605C121.031 129.624 120.882 129.643 120.727 129.663L120.6 128.671C120.755 128.651 120.902 128.632 121.042 128.613L121.173 129.605ZM134.352 127.133L121.199 129.6L121.015 128.618L134.168 126.15L134.352 127.133ZM142.815 131.913C142.099 130.105 141.004 128.817 139.596 128.026C138.184 127.234 136.415 126.919 134.312 127.138L134.208 126.144C136.465 125.908 138.453 126.238 140.086 127.154C141.722 128.073 142.957 129.556 143.744 131.545L142.815 131.913ZM144.812 142.678C144.434 139.094 143.8 134.419 142.814 131.912L143.745 131.546C144.789 134.202 145.432 139.019 145.806 142.573L144.812 142.678ZM146.352 158.355L144.811 142.674L145.806 142.576L147.347 158.257L146.352 158.355ZM134.998 177.103C138.549 176.46 141.638 173.694 143.727 170.076C145.813 166.463 146.845 162.09 146.354 158.371L147.345 158.24C147.87 162.215 146.768 166.808 144.593 170.576C142.42 174.34 139.12 177.373 135.176 178.087L134.998 177.103ZM133.643 183.681C133.917 183.037 134.127 182.094 134.282 181C134.435 179.913 134.53 178.712 134.587 177.57L135.586 177.62C135.528 178.779 135.431 180.013 135.272 181.14C135.114 182.257 134.889 183.305 134.563 184.072L133.643 183.681ZM126.748 192.783C127.832 192.468 129.026 191.466 130.236 189.855C131.434 188.26 132.598 186.133 133.643 183.68L134.563 184.073C133.498 186.572 132.297 188.776 131.035 190.456C129.786 192.12 128.428 193.336 127.027 193.743L126.748 192.783ZM108.226 176.346C108.192 176.851 108.352 177.503 108.725 178.287C109.094 179.063 109.651 179.927 110.356 180.841C111.767 182.668 113.734 184.65 115.859 186.471C117.983 188.291 120.248 189.935 122.245 191.091C123.243 191.669 124.165 192.119 124.961 192.409C125.769 192.703 126.399 192.814 126.833 192.766L126.942 193.76C126.279 193.833 125.476 193.661 124.619 193.349C123.75 193.032 122.773 192.552 121.744 191.956C119.683 190.763 117.368 189.081 115.208 187.23C113.049 185.38 111.029 183.349 109.565 181.452C108.833 180.504 108.231 179.578 107.821 178.716C107.416 177.862 107.178 177.028 107.229 176.278L108.226 176.346ZM110.555 161.945L108.221 176.392L107.234 176.233L109.567 161.786L110.555 161.945ZM109.309 161.73C109.479 161.646 109.634 161.554 109.775 161.456L110.347 162.275C110.164 162.403 109.966 162.521 109.752 162.627L109.309 161.73ZM98.6943 155.532C99.0437 156.608 100.301 158.902 102.201 160.547C104.081 162.176 106.507 163.111 109.309 161.73L109.751 162.627C106.466 164.246 103.612 163.092 101.546 161.303C99.5002 159.532 98.1454 157.08 97.7432 155.84L98.6943 155.532ZM103.221 146.882C101.953 146.988 101.006 147.41 100.301 148.006C99.5921 148.605 99.102 149.401 98.789 150.29C98.1578 152.083 98.2727 154.183 98.696 155.537L97.7415 155.835C97.2629 154.304 97.1335 151.981 97.8458 149.958C98.2045 148.939 98.7831 147.979 99.6559 147.242C100.533 146.502 101.681 146.008 103.138 145.886L103.221 146.882ZM110.373 154.454C109.93 153.206 109.097 151.196 107.869 149.552C106.632 147.896 105.087 146.726 103.221 146.882L103.138 145.886C105.525 145.686 107.362 147.202 108.67 148.954C109.987 150.717 110.86 152.837 111.315 154.12L110.373 154.454ZM113.598 154.121L110.964 154.772L110.724 153.802L113.359 153.15L113.598 154.121Z" fill="#775C42"/>
<path d="M138.135 164.389C138.135 164.389 130.269 164.975 125.369 160.381" stroke="#775C42" stroke-linecap="round" stroke-linejoin="round"/>
<path d="M114.31 162.695C114.31 162.695 119.123 169.59 123.156 173.623C127.19 177.657 135.908 176.616 135.908 176.616C135.908 176.616 135.416 180.012 134.847 181.81C134.418 183.174 131.245 183.205 129.062 182.831C122.101 181.637 113.54 167.187 114.31 162.695Z" fill="#775C42"/>
<path d="M138.964 148.169C138.964 149.752 139.647 151.112 140.551 151.112C141.456 151.112 142.139 149.799 142.139 148.169C142.139 146.54 141.456 145.227 140.551 145.227C139.647 145.227 138.964 146.54 138.964 148.169Z" fill="#775C42"/>
<path d="M139.129 140.246C139.871 140.01 140.681 139.926 141.504 139.998C142.326 140.07 143.14 140.298 143.888 140.665" stroke="#775C42" stroke-linecap="round" stroke-linejoin="round"/>
<path d="M134.927 148.17C134.927 148.17 137.149 155.285 136.515 155.943C135.882 156.601 133.33 157.055 133.33 157.055" stroke="#775C42" stroke-linecap="round" stroke-linejoin="round"/>
<path d="M128.176 148.917C128.176 150.5 127.494 151.86 126.589 151.86C125.684 151.86 125.002 150.547 125.002 148.917C125.002 147.288 125.684 145.975 126.589 145.975C127.494 145.975 128.176 147.288 128.176 148.917Z" fill="#775C42"/>
<path d="M127.182 141.976C126.381 141.774 125.538 141.721 124.711 141.821C123.883 141.92 123.092 142.171 122.393 142.555C121.694 142.938 121.103 143.446 120.663 144.041" stroke="#775C42" stroke-linecap="round" stroke-linejoin="round"/>
<path d="M84.6459 281.433L97.6091 279.889H97.6403C101.795 279.7 104.575 279.448 106.73 280.551C107.199 280.803 112.353 284.079 115.039 285.97C116.164 286.757 116.507 288.364 115.758 289.53C115.633 289.75 114.29 290.916 111.791 290.002C110.916 289.687 110.229 289.34 109.604 289.025L115.039 292.963C116.164 293.783 116.976 295.358 116.32 296.807C116.132 297.217 115.758 297.406 115.32 297.658C114.258 298.225 112.821 297.941 112.353 297.689C111.01 296.996 108.698 295.326 106.824 294.066L110.666 297.595C111.759 298.382 112.54 300.178 111.697 301.47C110.978 302.572 109.26 302.856 107.261 301.659L100.764 296.618L96.672 295.263C96.6095 295.232 96.3284 296.145 96.3909 296.177L99.7957 298.225C100.014 298.319 100.233 298.477 100.42 298.634L105.168 302.478L105.2 302.509C105.606 302.887 105.793 303.391 105.699 303.927C105.574 304.589 105.043 305.187 104.263 305.534C103.95 305.66 103.638 305.723 103.294 305.723C102.544 305.723 101.701 305.408 100.733 304.809L97.7028 302.635L90.5496 299.926C90.0498 299.831 89.3314 299.737 88.488 299.642C86.2389 299.39 83.4588 299.075 81.9595 298.162C80.3039 297.154 78.7109 293.783 78.5547 293.342L78.7733 292.459L81.7096 286.946L84.6459 281.433Z" fill="#FFE4E4"/>
<path d="M107.811 294.551C107.016 293.768 105.598 292.828 103.426 291.84" stroke="#775C42" stroke-linecap="round" stroke-linejoin="round"/>
<path d="M111.509 290.091C110.713 289.308 109.295 288.368 107.123 287.38" stroke="#775C42" stroke-linecap="round" stroke-linejoin="round"/>
<path d="M84.6459 281.433L97.6091 279.889H97.6403C101.795 279.7 104.575 279.448 106.73 280.551C107.199 280.803 112.353 284.079 115.039 285.97C116.164 286.757 116.507 288.364 115.758 289.53C115.633 289.75 114.29 290.916 111.791 290.002C110.916 289.687 110.229 289.34 109.604 289.025L115.039 292.963C116.164 293.783 116.976 295.358 116.32 296.807C116.132 297.217 115.758 297.406 115.32 297.658C114.258 298.225 112.821 297.941 112.353 297.689C111.01 296.996 108.698 295.326 106.824 294.066L110.666 297.595C111.759 298.382 112.54 300.178 111.697 301.47C110.978 302.572 109.26 302.856 107.261 301.659L100.764 296.618L96.672 295.263C96.6095 295.232 96.3284 296.145 96.3909 296.177L99.7957 298.225C100.014 298.319 100.233 298.477 100.42 298.634L105.168 302.478L105.2 302.509C105.606 302.887 105.793 303.391 105.699 303.927C105.574 304.589 105.043 305.187 104.263 305.534C103.95 305.66 103.638 305.723 103.294 305.723C102.544 305.723 101.701 305.408 100.733 304.809L97.7028 302.635L90.5496 299.926C90.0498 299.831 89.3314 299.737 88.488 299.642C86.2389 299.39 83.4588 299.075 81.9595 298.162C80.3039 297.154 78.7109 293.783 78.5547 293.342" stroke="#775C42" stroke-linecap="round" stroke-linejoin="round"/>
<path d="M32.2555 89.2513C30.2629 84.9736 29.252 80.4068 29.252 75.6811C29.252 66.9811 32.6804 58.8159 38.9218 52.6595C45.1632 46.5175 53.4412 43.1357 62.2613 43.1357V47.1822C46.3207 47.1822 33.3543 59.9576 33.3543 75.6811C33.3543 79.8288 34.2334 83.8174 35.9769 87.5604L32.2555 89.2513Z" stroke="#775C42" stroke-linecap="round" stroke-linejoin="round"/>
<path d="M62.2587 108.212C55.8122 108.212 49.5854 106.377 44.2084 102.923C38.9779 99.5558 34.8462 94.8156 32.2383 89.2372L35.9597 87.5464C40.6628 97.6337 50.9773 104.166 62.2441 104.166C75.7086 104.166 87.2831 95.1625 90.3745 82.2715L94.3597 83.2108C92.6748 90.22 88.5871 96.5643 82.8584 101.102C77.0565 105.683 69.7455 108.212 62.2587 108.212Z" fill="white" stroke="#775C42" stroke-linecap="round" stroke-linejoin="round"/>
<path d="M94.3903 83.2112L90.4051 82.2718C90.9179 80.1185 91.1816 77.9074 91.1816 75.6818C91.1816 67.3432 87.4895 59.4381 81.043 54.0187L83.7095 50.9404C91.0644 57.1402 95.284 66.1581 95.284 75.6818C95.284 78.2253 94.9763 80.7544 94.3903 83.2112Z" stroke="#775C42" stroke-linecap="round" stroke-linejoin="round"/>
<path d="M54.3645 63.1084H48.2695V89.4684H54.3645V63.1084Z" fill="#9FE075" stroke="#775C42" stroke-linecap="round" stroke-linejoin="round"/>
<path d="M65.0012 68.5273H58.9062V89.4824H65.0012V68.5273Z" fill="#9FE075" stroke="#775C42" stroke-linecap="round" stroke-linejoin="round"/>
<path d="M75.3606 66.0996H69.2656V89.4826H75.3606V66.0996Z" fill="#9FE075" stroke="#775C42" stroke-linecap="round" stroke-linejoin="round"/>
<path d="M110.776 58.3848H96.6121L86.332 68.1236" stroke="#775C42" stroke-linecap="round" stroke-linejoin="round"/>
<path d="M96.248 54.9785H111.371" stroke="#775C42" stroke-linecap="round" stroke-linejoin="round"/>
<path d="M32.222 114.271L32.2377 110.166L28.5871 109.852C28.3365 108.505 27.8351 107.252 27.1614 106.124L29.6055 103.241L26.707 100.327L23.9026 102.692C22.8058 101.94 21.5681 101.392 20.252 101.063L19.9387 97.3028L15.8338 97.2871L15.5205 100.938C14.1731 101.188 12.9196 101.674 11.7916 102.363L8.8931 99.9192L5.97895 102.818L8.34474 105.622C7.5927 106.719 7.04434 107.957 6.71532 109.273L2.95512 109.586L2.93945 113.691L6.58998 114.004C6.84066 115.352 7.32635 116.605 8.01572 117.733L5.57159 120.616L8.47008 123.53L11.2746 121.164C12.3713 121.916 13.609 122.465 14.9251 122.794L15.2228 126.554L19.3277 126.57L19.641 122.919C20.9884 122.668 22.2418 122.167 23.3699 121.478L26.2527 123.922L29.1668 121.023L26.8011 118.219C27.5531 117.122 28.1015 115.884 28.4305 114.568L32.222 114.271ZM17.5729 117.639C14.4081 117.639 11.8543 115.07 11.8699 111.905C11.8699 108.74 14.4394 106.186 17.6042 106.186C20.7691 106.186 23.3229 108.756 23.3072 111.921C23.3072 115.101 20.7377 117.655 17.5729 117.639Z" stroke="#775C42" stroke-linecap="round" stroke-linejoin="round"/>
</g>
<defs>
<clipPath id="clip0_926_35818">
<rect width="269" height="533" fill="white" transform="matrix(-1 0 0 1 269.5 0.722656)"/>
</clipPath>
<clipPath id="clip1_926_35818">
<rect width="247" height="143" fill="white" transform="matrix(-1 0 0 1 247.5 94.7227)"/>
</clipPath>
</defs>
</svg>
