<svg width="40" height="41" viewBox="0 0 40 41" fill="none" xmlns="http://www.w3.org/2000/svg">
<g clip-path="url(#clip0_972_1697)">
<mask id="mask0_972_1697" style="mask-type:alpha" maskUnits="userSpaceOnUse" x="0" y="0" width="41" height="41">
<rect x="0.121094" y="0.355469" width="40" height="40" rx="3" fill="#888888"/>
</mask>
<g mask="url(#mask0_972_1697)">
<rect x="-8.87891" y="-15.6445" width="71" height="72" fill="#FF3E45"/>
<path d="M-0.878906 -3.64453H24.1211V23.3555H-0.878906V-3.64453Z" fill="#005FA8"/>
<path d="M6.16384 12.6345L1.92383 11.5145L6.16384 10.3945V12.6345Z" fill="white"/>
<path d="M16.7227 10.3945L20.8827 11.5145L16.7227 12.6345V10.3945Z" fill="white"/>
<path d="M10.3242 6.23416L11.4442 1.99414L12.5642 6.23416H10.3242Z" fill="white"/>
<path d="M12.5642 16.7939L11.4442 21.034L10.3242 16.7939H12.5642Z" fill="white"/>
<path d="M7.84078 7.51443L6.80078 3.27441L9.84079 6.39442L7.84078 7.51443Z" fill="white"/>
<path d="M14.9669 15.5938L16.0869 19.8338L13.0469 16.6338L14.9669 15.5938Z" fill="white"/>
<path d="M6.32321 9.83388L3.2832 6.71387L7.44322 7.91387L6.32321 9.83388Z" fill="white"/>
<path d="M16.4833 13.2744L19.6033 16.3944L15.3633 15.1944L16.4833 13.2744Z" fill="white"/>
<path d="M13.125 6.3945L16.245 3.35449L15.045 7.59451L13.125 6.3945Z" fill="white"/>
<path d="M9.68446 16.6347L6.56445 19.6747L7.84446 15.5146L9.68446 16.6347Z" fill="white"/>
<path d="M15.2832 7.83469L19.5232 6.55469L16.4832 9.6747L15.2832 7.83469Z" fill="white"/>
<path d="M7.5233 15.2745L3.36328 16.5545L6.40329 13.3545L7.5233 15.2745Z" fill="white"/>
<path d="M16.8839 11.5142C16.8839 14.4742 14.4839 16.9543 11.4439 16.9543C8.48391 16.9543 6.00391 14.5542 6.00391 11.5142C6.00391 8.55423 8.40391 6.07422 11.4439 6.07422C14.4839 6.15422 16.8839 8.55423 16.8839 11.5142Z" fill="#005FA8"/>
<path d="M16.0808 11.514C16.0808 14.074 14.0008 16.1541 11.4408 16.1541C8.88079 16.1541 6.80078 14.074 6.80078 11.514C6.80078 8.95403 8.88079 6.87402 11.4408 6.87402C14.0008 6.87402 16.0808 8.95403 16.0808 11.514Z" fill="white"/>
</g>
</g>
<defs>
<clipPath id="clip0_972_1697">
<rect width="40" height="40" fill="white" transform="translate(0.121094 0.355469)"/>
</clipPath>
</defs>
</svg>
