<svg width="40" height="41" viewBox="0 0 40 41" fill="none" xmlns="http://www.w3.org/2000/svg">
<g clip-path="url(#clip0_972_4951)">
<mask id="mask0_972_4951" style="mask-type:alpha" maskUnits="userSpaceOnUse" x="0" y="0" width="41" height="41">
<rect x="0.121094" y="0.355469" width="40" height="40" rx="3" fill="#888888"/>
</mask>
<g mask="url(#mask0_972_4951)">
<path d="M50.1211 28.1445H-9.87891V31.0919H50.1211V28.1445Z" fill="white"/>
<path d="M50.1211 24.7764H-9.87891V27.7237H50.1211V24.7764Z" fill="#FF3E45"/>
<path d="M50.1211 21.8291H-9.87891V24.7765H50.1211V21.8291Z" fill="white"/>
<path d="M50.1211 31.0918H-9.87891V34.0392H50.1211V31.0918Z" fill="#FF3E45"/>
<path d="M50.1211 37.4082H-9.87891V40.3556H50.1211V37.4082Z" fill="#FF3E45"/>
<path d="M50.1211 34.0391H-9.87891V36.9864H50.1211V34.0391Z" fill="white"/>
<path d="M50.1211 3.30273H-9.87891V6.2501H50.1211V3.30273Z" fill="white"/>
<path d="M50.1211 0.355469H-9.87891V3.30284H50.1211V0.355469Z" fill="#FF3E45"/>
<path d="M50.1211 6.67188H-9.87891V9.61924H50.1211V6.67188Z" fill="#FF3E45"/>
<path d="M50.1211 12.5664H-9.87891V15.5138H50.1211V12.5664Z" fill="#FF3E45"/>
<path d="M50.1211 9.61914H-9.87891V12.5665H50.1211V9.61914Z" fill="white"/>
<path d="M50.1211 15.9346H-9.87891V18.8819H50.1211V15.9346Z" fill="white"/>
<path d="M50.1211 18.8818H-9.87891V21.8292H50.1211V18.8818Z" fill="#FF3E45"/>
<path d="M25.5436 0.355469H-4.87891V21.8292H25.5436V0.355469Z" fill="#184383"/>
<path d="M23.0078 1.19727L23.4304 2.03937H24.2754L23.4304 2.88148L23.8529 3.72358L23.0078 3.30253L22.1628 3.72358L22.5853 2.88148L21.7402 2.03937H22.5853L23.0078 1.19727Z" fill="white"/>
<path d="M17.9375 1.19727L18.3601 2.03937H19.2051L18.3601 2.88148L18.7826 3.72358L17.9375 3.30253L17.0925 3.72358L17.515 2.88148L16.6699 2.03937H17.515L17.9375 1.19727Z" fill="white"/>
<path d="M12.8672 1.19727L13.2898 2.03937H14.1348L13.2898 2.88148L13.7123 3.72358L12.8672 3.30253L12.0221 3.72358L12.4447 2.88148L11.5996 2.03937H12.4447L12.8672 1.19727Z" fill="white"/>
<path d="M7.7969 1.19727L8.21944 2.03937H9.06451L8.21944 2.88148L8.64197 3.72358L7.7969 3.30253L6.95183 3.72358L7.37437 2.88148L6.5293 2.03937H7.37437L7.7969 1.19727Z" fill="white"/>
<path d="M2.72659 1.19727L3.14913 2.03937H3.9942L3.14913 2.88148L3.57166 3.72358L2.72659 3.30253L1.88152 3.72358L2.30405 2.88148L1.45898 2.03937H2.30405L2.72659 1.19727Z" fill="white"/>
<path d="M23.0078 5.8291L23.4304 6.67121H24.2754L23.4304 7.09226L23.8529 7.93437L23.0078 7.51331L22.1628 7.93437L22.5853 7.09226L21.7402 6.67121H22.5853L23.0078 5.8291Z" fill="white"/>
<path d="M17.9375 5.8291L18.3601 6.67121H19.2051L18.3601 7.09226L18.7826 7.93437L17.9375 7.51331L17.0925 7.93437L17.515 7.09226L16.6699 6.67121H17.515L17.9375 5.8291Z" fill="white"/>
<path d="M12.8672 5.8291L13.2898 6.67121H14.1348L13.2898 7.09226L13.7123 7.93437L12.8672 7.51331L12.0221 7.93437L12.4447 7.09226L11.5996 6.67121H12.4447L12.8672 5.8291Z" fill="white"/>
<path d="M7.7969 5.8291L8.21944 6.67121H9.06451L8.21944 7.09226L8.64197 7.93437L7.7969 7.51331L6.95183 7.93437L7.37437 7.09226L6.5293 6.67121H7.37437L7.7969 5.8291Z" fill="white"/>
<path d="M2.72659 5.8291L3.14913 6.67121H3.9942L3.14913 7.09226L3.57166 7.93437L2.72659 7.51331L1.88152 7.93437L2.30405 7.09226L1.45898 6.67121H2.30405L2.72659 5.8291Z" fill="white"/>
<path d="M23.0078 10.0391L23.4304 10.8812H24.2754L23.4304 11.3022L23.8529 12.1443L23.0078 11.7233L22.1628 12.1443L22.5853 11.3022L21.7402 10.8812H22.5853L23.0078 10.0391Z" fill="white"/>
<path d="M17.9375 10.0391L18.3601 10.8812H19.2051L18.3601 11.3022L18.7826 12.1443L17.9375 11.7233L17.0925 12.1443L17.515 11.3022L16.6699 10.8812H17.515L17.9375 10.0391Z" fill="white"/>
<path d="M12.8672 10.0391L13.2898 10.8812H14.1348L13.2898 11.3022L13.7123 12.1443L12.8672 11.7233L12.0221 12.1443L12.4447 11.3022L11.5996 10.8812H12.4447L12.8672 10.0391Z" fill="white"/>
<path d="M7.7969 10.0391L8.21944 10.8812H9.06451L8.21944 11.3022L8.64197 12.1443L7.7969 11.7233L6.95183 12.1443L7.37437 11.3022L6.5293 10.8812H7.37437L7.7969 10.0391Z" fill="white"/>
<path d="M2.72659 10.0391L3.14913 10.8812H3.9942L3.14913 11.3022L3.57166 12.1443L2.72659 11.7233L1.88152 12.1443L2.30405 11.3022L1.45898 10.8812H2.30405L2.72659 10.0391Z" fill="white"/>
<path d="M23.0078 14.25L23.4304 15.0921H24.2754L23.4304 15.5132L23.8529 16.7763L23.0078 15.9342L22.1628 16.7763L22.5853 15.5132L21.7402 15.0921H22.5853L23.0078 14.25Z" fill="white"/>
<path d="M17.9375 14.25L18.3601 15.0921H19.2051L18.3601 15.5132L18.7826 16.7763L17.9375 15.9342L17.0925 16.7763L17.515 15.5132L16.6699 15.0921H17.515L17.9375 14.25Z" fill="white"/>
<path d="M12.8672 14.25L13.2898 15.0921H14.1348L13.2898 15.5132L13.7123 16.7763L12.8672 15.9342L12.0221 16.7763L12.4447 15.5132L11.5996 15.0921H12.4447L12.8672 14.25Z" fill="white"/>
<path d="M7.7969 14.25L8.21944 15.0921H9.06451L8.21944 15.5132L8.64197 16.7763L7.7969 15.9342L6.95183 16.7763L7.37437 15.5132L6.5293 15.0921H7.37437L7.7969 14.25Z" fill="white"/>
<path d="M2.72659 14.25L3.14913 15.0921H3.9942L3.14913 15.5132L3.57166 16.7763L2.72659 15.9342L1.88152 16.7763L2.30405 15.5132L1.45898 15.0921H2.30405L2.72659 14.25Z" fill="white"/>
<path d="M23.0078 18.4609L23.4304 19.303H24.2754L23.4304 20.1451L23.8529 20.9873L23.0078 20.1451L22.1628 20.9873L22.5853 20.1451L21.7402 19.303H22.5853L23.0078 18.4609Z" fill="white"/>
<path d="M17.9375 18.4609L18.3601 19.303H19.2051L18.3601 20.1451L18.7826 20.9873L17.9375 20.1451L17.0925 20.9873L17.515 20.1451L16.6699 19.303H17.515L17.9375 18.4609Z" fill="white"/>
<path d="M12.8672 18.4609L13.2898 19.303H14.1348L13.2898 20.1451L13.7123 20.9873L12.8672 20.1451L12.0221 20.9873L12.4447 20.1451L11.5996 19.303H12.4447L12.8672 18.4609Z" fill="white"/>
<path d="M7.7969 18.4609L8.21944 19.303H9.06451L8.21944 20.1451L8.64197 20.9873L7.7969 20.1451L6.95183 20.9873L7.37437 20.1451L6.5293 19.303H7.37437L7.7969 18.4609Z" fill="white"/>
<path d="M2.72659 18.4609L3.14913 19.303H3.9942L3.14913 20.1451L3.57166 20.9873L2.72659 20.1451L1.88152 20.9873L2.30405 20.1451L1.45898 19.303H2.30405L2.72659 18.4609Z" fill="white"/>
<path d="M20.4727 16.3555L20.8952 17.1976H21.7403L20.8952 17.6186L21.3178 18.8818L20.4727 18.0397L19.6276 18.8818L20.0501 17.6186L19.2051 17.1976H20.0501L20.4727 16.3555Z" fill="white"/>
<path d="M15.4024 16.3555L15.8249 17.1976H16.67L15.8249 17.6186L16.2474 18.8818L15.4024 18.0397L14.5573 18.8818L14.9798 17.6186L14.1348 17.1976H14.9798L15.4024 16.3555Z" fill="white"/>
<path d="M10.3321 16.3555L10.7546 17.1976H11.5997L10.7546 17.6186L11.1771 18.8818L10.3321 18.0397L9.48699 18.8818L9.90952 17.6186L9.06445 17.1976H9.90952L10.3321 16.3555Z" fill="white"/>
<path d="M5.26175 16.3555L5.68428 17.1976H6.52935L5.68428 17.6186L6.10682 18.8818L5.26175 18.0397L4.41668 18.8818L4.83921 17.6186L3.99414 17.1976H4.83921L5.26175 16.3555Z" fill="white"/>
<path d="M0.191434 16.3555L0.613969 17.1976H1.45904L0.613969 17.6186L1.0365 18.8818L0.191434 18.0397L-0.653637 18.8818L-0.231102 17.6186L-1.07617 17.1976H-0.231102L0.191434 16.3555Z" fill="white"/>
<path d="M20.4727 12.1445L20.8952 12.9866H21.7403L20.8952 13.4077L21.3178 14.2498L20.4727 13.8287L19.6276 14.2498L20.0501 13.4077L19.2051 12.9866H20.0501L20.4727 12.1445Z" fill="white"/>
<path d="M15.4024 12.1445L15.8249 12.9866H16.67L15.8249 13.4077L16.2474 14.2498L15.4024 13.8287L14.5573 14.2498L14.9798 13.4077L14.1348 12.9866H14.9798L15.4024 12.1445Z" fill="white"/>
<path d="M10.3321 12.1445L10.7546 12.9866H11.5997L10.7546 13.4077L11.1771 14.2498L10.3321 13.8287L9.48699 14.2498L9.90952 13.4077L9.06445 12.9866H9.90952L10.3321 12.1445Z" fill="white"/>
<path d="M5.26175 12.1445L5.68428 12.9866H6.52935L5.68428 13.4077L6.10682 14.2498L5.26175 13.8287L4.41668 14.2498L4.83921 13.4077L3.99414 12.9866H4.83921L5.26175 12.1445Z" fill="white"/>
<path d="M0.191434 12.1445L0.613969 12.9866H1.45904L0.613969 13.4077L1.0365 14.2498L0.191434 13.8287L-0.653637 14.2498L-0.231102 13.4077L-1.07617 12.9866H-0.231102L0.191434 12.1445Z" fill="white"/>
<path d="M20.4727 7.93359L20.8952 8.7757H21.7403L20.8952 9.19675L21.3178 10.0389L20.4727 9.6178L19.6276 10.0389L20.0501 9.19675L19.2051 8.7757H20.0501L20.4727 7.93359Z" fill="white"/>
<path d="M15.4024 7.93359L15.8249 8.7757H16.67L15.8249 9.19675L16.2474 10.0389L15.4024 9.6178L14.5573 10.0389L14.9798 9.19675L14.1348 8.7757H14.9798L15.4024 7.93359Z" fill="white"/>
<path d="M10.3321 7.93359L10.7546 8.7757H11.5997L10.7546 9.19675L11.1771 10.0389L10.3321 9.6178L9.48699 10.0389L9.90952 9.19675L9.06445 8.7757H9.90952L10.3321 7.93359Z" fill="white"/>
<path d="M5.26175 7.93359L5.68428 8.7757H6.52935L5.68428 9.19675L6.10682 10.0389L5.26175 9.6178L4.41668 10.0389L4.83921 9.19675L3.99414 8.7757H4.83921L5.26175 7.93359Z" fill="white"/>
<path d="M0.191434 7.93359L0.613969 8.7757H1.45904L0.613969 9.19675L1.0365 10.0389L0.191434 9.6178L-0.653637 10.0389L-0.231102 9.19675L-1.07617 8.7757H-0.231102L0.191434 7.93359Z" fill="white"/>
<path d="M20.4727 3.30273L20.8952 4.56589H21.7403L20.8952 4.98695L21.3178 5.82905L20.4727 5.408L19.6276 5.82905L20.0501 4.98695L19.2051 4.56589H20.0501L20.4727 3.30273Z" fill="white"/>
<path d="M15.4024 3.30273L15.8249 4.56589H16.67L15.8249 4.98695L16.2474 5.82905L15.4024 5.408L14.5573 5.82905L14.9798 4.98695L14.1348 4.56589H14.9798L15.4024 3.30273Z" fill="white"/>
<path d="M10.3321 3.30273L10.7546 4.56589H11.5997L10.7546 4.98695L11.1771 5.82905L10.3321 5.408L9.48699 5.82905L9.90952 4.98695L9.06445 4.56589H9.90952L10.3321 3.30273Z" fill="white"/>
<path d="M5.26175 3.30273L5.68428 4.56589H6.52935L5.68428 4.98695L6.10682 5.82905L5.26175 5.408L4.41668 5.82905L4.83921 4.98695L3.99414 4.56589H4.83921L5.26175 3.30273Z" fill="white"/>
<path d="M0.191434 3.30273L0.613969 4.56589H1.45904L0.613969 4.98695L1.0365 5.82905L0.191434 5.408L-0.653637 5.82905L-0.231102 4.98695L-1.07617 4.56589H-0.231102L0.191434 3.30273Z" fill="white"/>
</g>
</g>
<defs>
<clipPath id="clip0_972_4951">
<rect width="40" height="40" fill="white" transform="translate(0.121094 0.355469)"/>
</clipPath>
</defs>
</svg>
