<svg width="40" height="41" viewBox="0 0 40 41" fill="none" xmlns="http://www.w3.org/2000/svg">
<g clip-path="url(#clip0_972_5475)">
<mask id="mask0_972_5475" style="mask-type:alpha" maskUnits="userSpaceOnUse" x="0" y="0" width="41" height="41">
<rect x="0.121094" y="0.355469" width="40" height="40" rx="3" fill="#888888"/>
</mask>
<g mask="url(#mask0_972_5475)">
<path d="M58.9106 0.355469H-0.878906V40.3555H58.9106V0.355469Z" fill="#FF3E45"/>
<path d="M9.22481 4.14355L10.488 8.35408H14.6985L11.3301 10.8804L12.5932 15.0909L9.22481 12.5646L5.43534 15.0909L7.11955 10.8804L3.33008 8.35408H7.96166L9.22481 4.14355Z" fill="#FEDD19"/>
<path d="M19.749 2.45996V4.14417L21.0121 4.56522L19.749 4.98628L19.3279 6.24944L18.9069 4.98628L17.2227 5.40733L18.4858 4.14417L17.6437 2.88101L18.9069 3.72312L19.749 2.45996Z" fill="#FEDD19"/>
<path d="M24.384 7.09097L23.963 8.35413L24.8051 9.19624H23.5419L22.6998 10.4594V8.77518H21.0156L22.2788 7.93308V6.66992L23.1209 7.51203L24.384 7.09097Z" fill="#FEDD19"/>
<path d="M24.8051 13.8278L23.963 14.6699L24.384 15.933L23.1209 15.0909L21.8577 15.933L22.2788 14.6699L21.0156 13.8278H22.6998L23.1209 12.1436L23.5419 13.8278H24.8051Z" fill="#FEDD19"/>
<path d="M21.0121 18.4607L19.749 18.8818V20.1449L18.9069 18.8818L17.2227 19.3028L18.4858 18.4607L17.6437 17.1976L18.9069 17.6186L19.749 16.3555V18.0397L21.0121 18.4607Z" fill="#FEDD19"/>
</g>
</g>
<defs>
<clipPath id="clip0_972_5475">
<rect width="40" height="40" fill="white" transform="translate(0.121094 0.355469)"/>
</clipPath>
</defs>
</svg>
