<svg width="150" height="42" viewBox="0 0 150 42" fill="none" xmlns="http://www.w3.org/2000/svg">
<g clip-path="url(#clip0_972_8122)">
<mask id="mask0_972_8122" style="mask-type:luminance" maskUnits="userSpaceOnUse" x="10" y="10" width="41" height="21">
<path d="M27.2227 17.0709L25.0881 14.7489L10.502 30.467H12.2808L25.0881 16.5351L27.2227 18.8571L32.7369 12.9628L48.924 30.467H50.7028L32.7369 10.998L27.2227 17.0709Z" fill="white"/>
</mask>
<g mask="url(#mask0_972_8122)">
<path d="M44.8305 -3.11328L57.4599 27.6083L16.3697 44.7552L3.74023 13.855L44.8305 -3.11328Z" fill="url(#paint0_linear_972_8122)"/>
</g>
<mask id="mask1_972_8122" style="mask-type:luminance" maskUnits="userSpaceOnUse" x="13" y="17" width="35" height="14">
<path d="M24.5595 24.2163L22.2471 21.5371L13.8867 30.4678H47.3281L38.4341 20.8227L35.5881 23.8591L30.2517 17.9648L24.5595 24.2163Z" fill="white"/>
</mask>
<g mask="url(#mask1_972_8122)">
<path d="M37.3676 2.60352L53.021 26.7164L23.8487 45.8281L8.19531 21.7152L37.3676 2.60352Z" fill="url(#paint1_linear_972_8122)"/>
</g>
<path d="M69.5622 26.3583C69.9179 26.3583 70.2737 26.0011 70.2737 25.6439V25.108H65.1152V22.786H69.2064C69.5622 22.786 69.9179 22.4288 69.9179 22.0716V21.5358H67.2497L68.4949 19.0352H67.0719C66.7161 19.0352 66.3603 19.2138 66.1825 19.571L65.2931 21.5358H62.9806L62.0912 19.571C61.9134 19.2138 61.5576 19.0352 61.2018 19.0352H59.7788L61.024 21.5358H58.3558V22.786H63.1585V25.108H58V26.3583H63.1585V30.4664H64.5816C64.9373 30.4664 65.1152 30.2878 65.1152 29.9306V26.3583H69.5622Z" fill="#006FBC"/>
<path d="M65.1139 12.7832H63.513C63.1572 12.7832 62.9793 12.9618 62.9793 13.319V14.5693H54.7969V15.9983H62.9793V17.4272H56.5757C55.8642 17.4272 55.3305 17.963 55.3305 18.6775V30.6446H56.7535C57.1093 30.6446 57.2872 30.466 57.2872 30.1087V18.8561C57.2872 18.6775 57.4651 18.6775 57.4651 18.6775H70.4503C70.6282 18.6775 70.6282 18.8561 70.6282 18.8561V27.9654C70.6282 28.5012 70.0945 29.2157 69.0273 29.7515L70.0945 30.8232C70.2724 31.0018 70.4503 31.0018 70.4503 31.0018C70.6282 31.0018 70.6282 31.0018 70.8061 31.0018C72.0512 30.466 72.5849 29.5729 72.5849 28.3226V18.8561C72.5849 18.1416 72.0512 17.6058 71.3397 17.6058H64.936V16.1769H72.407C72.7627 16.1769 73.1185 15.8196 73.1185 15.4624V14.3907H64.936V12.7832H65.1139Z" fill="#006FBC"/>
<path d="M93.3976 16.5343V28.5014C93.3976 28.68 93.2197 28.68 93.0418 28.68H87.8833V13.1406H86.4603C85.9266 13.1406 85.5709 13.4979 85.5709 14.0337V29.0373H80.4123C80.4123 29.0373 80.0566 29.0373 80.0566 28.8586V15.8198H78.6335C78.0999 15.8198 77.7441 16.1771 77.7441 16.7129V29.0373C77.7441 29.9303 78.4557 30.6448 79.3451 30.6448H93.2197C94.1091 30.6448 94.8206 29.9303 94.8206 29.0373V15.8198H93.5754C93.7533 15.6412 93.3976 16.1771 93.3976 16.5343Z" fill="#006FBC"/>
<path d="M111.717 22.9633C110.472 20.8199 109.76 18.498 109.76 16.176V12.9609H108.337C107.804 12.9609 107.448 13.3182 107.448 13.854V16.3546C107.448 20.4627 105.313 25.8211 99.4434 29.572L99.977 30.2865C100.155 30.4651 100.333 30.4651 100.511 30.4651C100.689 30.4651 100.866 30.4651 100.866 30.2865C104.068 28.3217 106.381 25.9997 107.804 23.6778C108.159 22.9633 108.515 22.4275 108.693 21.713C109.049 22.7847 109.583 23.8564 110.116 24.9281C111.183 26.7142 113.14 29.2148 115.986 30.6437C116.164 30.6437 116.164 30.6437 116.342 30.6437C116.52 30.6437 116.876 30.4651 116.876 30.2865L117.943 29.0362C115.453 27.25 113.14 25.2853 111.717 22.9633Z" fill="#006FBC"/>
<path d="M121.326 24.7494H135.023V25.6425H129.865V26.7142H135.023V27.9645C135.023 28.5003 134.845 28.8575 133.778 29.3934L134.845 30.2864C135.023 30.4651 135.023 30.4651 135.201 30.4651C135.379 30.4651 135.379 30.4651 135.379 30.4651C136.624 29.9292 136.802 29.3934 136.802 28.1431V26.7142H138.047C138.403 26.7142 138.759 26.3569 138.759 25.9997V25.6425H136.802V24.7494H138.047C138.403 24.7494 138.759 24.3922 138.759 24.035V23.6777H121.148V24.7494H121.326Z" fill="#006FBC"/>
<path d="M122.037 21.7135V22.7852H137.868C138.224 22.7852 138.58 22.4279 138.58 22.0707V21.5349H131.465V20.4632H135.556C135.912 20.4632 136.267 20.106 136.267 19.7487V19.2129H123.816V20.2846H129.508V21.3563H122.037V21.7135Z" fill="#006FBC"/>
<path d="M129.506 15.8196H123.814V16.8913H136.621C136.977 16.8913 137.332 16.5341 137.332 16.1769V15.641H131.64V14.748H138.044C138.4 14.748 138.755 14.3907 138.755 14.0335V13.6763H131.64V12.7832H130.573C130.039 12.7832 129.684 13.1404 129.684 13.6763V13.8549H122.568V14.9266H129.684V15.8196H129.506Z" fill="#006FBC"/>
<path d="M128.261 25.6426H123.28C122.746 25.6426 122.391 25.9998 122.391 26.5356V29.3935C122.391 29.9293 122.746 30.2865 123.28 30.2865H128.261C128.794 30.2865 129.15 29.9293 129.15 29.3935V26.5356C129.328 26.1784 128.794 25.6426 128.261 25.6426ZM127.371 29.3935H123.992V26.7143H127.371V29.3935Z" fill="#006FBC"/>
<path d="M131.817 27.4297H130.572L131.64 29.7517C131.817 30.1089 132.173 30.2875 132.529 30.2875H133.774L132.707 27.9655C132.529 27.6083 132.173 27.4297 131.817 27.4297Z" fill="#006FBC"/>
<path d="M138.932 17.9627C138.754 17.7841 138.576 17.6055 138.22 17.6055H121.855V18.8558H137.153L136.619 20.8205H137.865C138.22 20.8205 138.576 20.6419 138.576 20.1061L138.932 18.6772C139.11 18.4985 139.11 18.1413 138.932 17.9627Z" fill="#006FBC"/>
</g>
<defs>
<linearGradient id="paint0_linear_972_8122" x1="28.6306" y1="15.9564" x2="35.3913" y2="32.2918" gradientUnits="userSpaceOnUse">
<stop stop-color="#FABE00"/>
<stop offset="0.003359" stop-color="#FABE00"/>
<stop offset="0.0512475" stop-color="#EFC100"/>
<stop offset="0.1479" stop-color="#CBC200"/>
<stop offset="0.2833" stop-color="#7CBC28"/>
<stop offset="0.3" stop-color="#6FBA2C"/>
<stop offset="0.3768" stop-color="#5CAD4E"/>
<stop offset="0.5514" stop-color="#259380"/>
<stop offset="0.7073" stop-color="#007E9C"/>
<stop offset="0.8386" stop-color="#006FAA"/>
<stop offset="0.9403" stop-color="#0065B0"/>
<stop offset="1" stop-color="#0062B1"/>
</linearGradient>
<linearGradient id="paint1_linear_972_8122" x1="27.2869" y1="19.1455" x2="34.6325" y2="30.3245" gradientUnits="userSpaceOnUse">
<stop stop-color="#E1E300"/>
<stop offset="0.21" stop-color="#7FBE26"/>
<stop offset="0.297" stop-color="#63AB59"/>
<stop offset="0.3988" stop-color="#3F977B"/>
<stop offset="0.502" stop-color="#008792"/>
<stop offset="0.6043" stop-color="#007AA1"/>
<stop offset="0.7058" stop-color="#0070AA"/>
<stop offset="0.8061" stop-color="#0068AF"/>
<stop offset="0.9048" stop-color="#0063B1"/>
<stop offset="1" stop-color="#0062B1"/>
</linearGradient>
<clipPath id="clip0_972_8122">
<rect width="128.564" height="20.0049" fill="white" transform="translate(10.5 10.998)"/>
</clipPath>
</defs>
</svg>
