<svg width="238" height="368" viewBox="0 0 238 368" fill="none" xmlns="http://www.w3.org/2000/svg">
<path d="M174.322 210.799C174.189 210.532 170.421 200.396 169.32 197.519C168.12 194.374 169.854 193.505 169.854 192.668C169.854 191.196 167.82 188.821 169.854 186.379C171.088 184.907 171.555 184.573 171.855 183.168C172.221 181.462 173.022 179.455 174.322 179.254C175.623 179.053 175.489 178.384 177.19 176.979C178.857 175.574 179.858 177.748 180.691 177.648C183.126 177.414 185.527 178.284 186.427 180.559C186.794 181.462 186.694 182.733 186.694 182.733C186.694 182.733 188.661 186.58 187.861 188.888C187.027 191.196 189.662 192.066 189.295 194.475C188.928 196.85 186.66 197.987 186.06 200.663C185.493 203.373 188.561 205.213 184.293 206.35C180.025 207.454 174.322 210.799 174.322 210.799Z" fill="#263238" stroke="#775C42" stroke-linecap="round" stroke-linejoin="round"/>
<path d="M181.292 303.093L182.059 309.483C182.059 309.483 184.127 318.715 184.16 319.284C184.193 319.853 180.525 320.187 177.958 319.92C175.39 319.652 171.955 320.555 168.454 320.154C164.952 319.753 164.085 319.217 163.485 318.481C162.885 317.712 166.053 317.478 167.52 317.244C168.987 316.976 174.356 310.653 174.69 310.252C175.023 309.851 172.455 299.714 172.189 298.544C171.955 297.339 181.292 303.093 181.292 303.093Z" fill="#FFDEDE" stroke="#775C42" stroke-linecap="round" stroke-linejoin="round"/>
<path d="M167.52 317.211C168.921 316.976 173.456 311.457 174.323 310.42C174.656 309.951 175.323 310.119 175.79 310.253C176.59 310.487 177.124 310.922 177.424 311.223C177.691 311.49 177.958 311.791 178.258 311.992C178.524 312.126 178.858 312.226 179.158 312.159C179.458 312.092 179.658 311.825 179.858 311.624C180.592 310.955 181.359 310.319 182.092 309.65C182.393 310.955 184.127 318.749 184.16 319.285C184.193 319.853 180.525 320.188 177.958 319.92C175.39 319.653 171.955 320.556 168.454 320.154C164.952 319.753 164.085 319.218 163.485 318.482C162.918 317.712 166.053 317.478 167.52 317.211Z" fill="#A87647" stroke="#775C42" stroke-linecap="round" stroke-linejoin="round"/>
<path d="M163.485 318.448C163.385 318.314 163.385 318.181 163.519 318.047C163.952 318.448 164.285 318.716 164.786 318.95C165.453 319.285 167.987 319.853 171.455 319.418C174.923 318.984 176.99 317.612 177.291 317.679C177.591 317.779 177.657 318.749 178.524 318.582C179.391 318.415 179.225 317.612 179.925 317.244C180.458 316.976 182.526 316.742 183.626 316.608C183.927 317.98 184.16 319.084 184.16 319.285C184.193 319.853 180.525 320.188 177.958 319.92C175.39 319.653 171.955 320.556 168.454 320.154C164.952 319.719 164.085 319.218 163.485 318.448Z" fill="white" stroke="#775C42" stroke-linecap="round" stroke-linejoin="round"/>
<path d="M219.304 275.027C219.304 275.027 222.339 276.767 222.939 277.034C224.006 277.536 225.774 278.373 226.807 278.908C228.375 279.744 232.343 285.13 234.344 288.308C236.344 291.486 233.176 295.199 231.609 296.671C230.042 298.143 226.874 292.657 225.107 289.144C223.339 285.598 222.572 285.331 222.572 285.331L213.802 281.417C213.802 281.417 213.936 275.094 219.304 275.027Z" fill="#FFDEDE" stroke="#775C42" stroke-linecap="round" stroke-linejoin="round"/>
<path d="M221.072 284.829C219.038 283.758 220.005 279.744 223.54 280.413C223.706 280.447 223.873 280.246 223.873 280.079C223.84 279.075 223.573 278.071 223.173 277.135C224.273 277.637 225.84 278.406 226.774 278.908C228.341 279.744 232.31 285.13 234.31 288.308C236.311 291.486 233.143 295.199 231.576 296.671C230.009 298.143 226.841 292.657 225.073 289.144C223.506 285.933 221.205 284.896 221.072 284.829Z" fill="#A87647" stroke="#775C42" stroke-linecap="round" stroke-linejoin="round"/>
<path d="M226.774 278.907C228.341 279.743 232.31 285.129 234.31 288.307C236.311 291.485 233.143 295.198 231.576 296.67C231.309 296.938 230.976 296.971 230.642 296.871C231.343 296.336 231.943 295.533 232.776 294.362C234.01 292.622 234.644 290.95 234.244 289.712C233.877 288.474 231.409 284.995 230.676 284.059C229.942 283.122 228.642 282.319 227.908 281.516C227.408 280.981 226.074 279.241 225.274 278.171C225.84 278.439 226.374 278.673 226.774 278.907Z" fill="white" stroke="#775C42" stroke-linecap="round" stroke-linejoin="round"/>
<path d="M163.951 228.931C163.951 228.931 161.75 243.349 162.184 261.213C162.617 279.076 168.886 308.447 168.886 308.447C168.886 308.447 171.287 309.317 174.822 308.447C178.357 307.578 182.025 305.504 182.025 305.504L178.123 274.995V250.341C178.123 250.341 186.327 264.759 189.561 269.81C192.796 274.861 214.071 289.045 214.071 289.045C214.071 289.045 215.838 290.952 217.706 287.004C219.606 283.057 220.773 275.764 220.773 275.764C220.773 275.764 202.4 261.38 200.932 259.473C199.465 257.566 188.161 230.604 188.161 230.604C188.161 230.604 186.793 227.024 185.726 226.422C184.693 225.787 172.888 225.686 169.987 225.787C167.119 225.887 163.951 228.931 163.951 228.931Z" fill="#B0B0B3" stroke="#775C42" stroke-linecap="round" stroke-linejoin="round"/>
<path d="M186.033 224.805L189.26 231.062C189.26 231.062 188.426 231.062 187.026 229.657C182.133 224.748 186.332 230.065 179.789 232.902C174.587 235.143 172.188 233.839 172.188 233.839L170.252 228.159L169.152 233.839C169.152 233.839 165.45 233.471 163.95 231.33C162.483 229.189 163.316 227.55 163.95 224.405C164.617 221.327 186.033 224.805 186.033 224.805Z" fill="white" stroke="#775C42" stroke-linecap="round" stroke-linejoin="round"/>
<path d="M159.682 170.992C159.682 170.791 159.115 163.231 159.315 161.491C159.515 159.752 159.748 158.648 159.281 157.276C158.815 155.905 159.615 155.47 159.281 154.901C158.948 154.332 158.381 154.7 158.081 155.135C157.781 155.57 157.781 156.473 157.314 156.908C156.814 157.343 156.514 156.808 155.347 156.239C154.179 155.67 152.012 156.105 151.445 155.938C150.878 155.737 150.278 155.102 149.544 155.236C148.811 155.369 149.444 155.771 150.011 156.406C150.578 157.042 151.212 158.012 152.445 159.317C153.679 160.621 154.413 160.922 154.446 161.591C154.513 162.261 153.779 170.992 153.779 170.992H159.682Z" fill="#FFDEDE" stroke="#775C42" stroke-linecap="round" stroke-linejoin="round"/>
<path d="M158.414 157.008C158.414 157.008 158.214 157.878 156.68 156.673C155.146 155.469 153.112 153.361 152.345 153.328C151.578 153.295 151.311 152.592 150.778 152.559C150.244 152.525 150.311 152.927 150.311 153.194C150.278 153.462 149.811 153.161 149.544 153.328C149.277 153.495 149.644 154.398 151.011 155.837C152.412 157.242 154.946 158.179 156.547 158.58C158.147 158.948 158.414 157.008 158.414 157.008Z" fill="#FFDEDE" stroke="#775C42" stroke-linecap="round" stroke-linejoin="round"/>
<path d="M150.278 155.135C150.378 155.034 150.478 155.068 150.578 155.135C151.178 155.703 151.778 156.272 152.312 156.908C152.379 157.008 152.412 157.108 152.312 157.209C152.245 157.276 152.078 157.309 152.012 157.209C151.478 156.573 150.911 156.004 150.278 155.436C150.178 155.369 150.211 155.202 150.278 155.135Z" fill="#B4522A"/>
<path d="M155.28 158.514C155.647 157.811 156.248 157.209 156.948 156.841C157.181 156.708 157.381 157.075 157.148 157.209C156.514 157.577 155.981 158.079 155.647 158.748C155.581 158.848 155.447 158.882 155.347 158.815C155.247 158.748 155.214 158.614 155.28 158.514Z" fill="#B4522A"/>
<path d="M164.451 209.662C160.526 200.522 146.257 182.61 152.546 171.627C152.88 171.025 152.413 168.85 152.646 168.382C152.88 167.914 155.314 167.546 157.381 167.713C159.482 167.914 159.749 168.148 159.749 168.783C159.749 169.419 159.816 170.891 159.916 171.159C160.383 172.196 160.183 175.741 160.383 176.712C160.616 177.682 160.583 179.589 160.716 180.927C161.448 188.269 166.912 191.762 168.901 195.045C170.339 197.418 168.932 198.98 167.519 205.146C166.518 209.495 165.018 210.967 164.451 209.662Z" fill="white" stroke="#775C42" stroke-linecap="round" stroke-linejoin="round"/>
<path d="M154.781 170.422C156.149 170.322 156.749 170.289 158.383 170.556C158.716 170.623 158.716 171.125 158.383 171.091C156.182 170.891 155.615 170.924 154.481 171.058C154.114 171.091 153.081 171.359 152.614 171.493C152.647 171.359 152.68 171.158 152.68 170.958C153.181 170.723 154.515 170.456 154.781 170.422Z" fill="#E1E3FF"/>
<path d="M173.721 194.24C172.62 194.273 172.654 194.742 171.453 194.742C170.786 194.742 170.186 194.742 169.886 194.708C169.019 194.608 168.885 194.273 168.552 194.574C168.285 194.809 166.351 201.767 165.217 205.748C163.95 207.989 163.216 209.461 164.05 212.17C164.884 214.88 164.65 217.891 164.65 218.995C164.65 220.099 163.783 224.146 163.35 225.752C162.916 227.358 169.652 228.696 175.455 228.93C181.257 229.164 186.392 226.689 186.326 225.585C186.259 224.481 183.424 217.456 183.058 216.352C182.691 215.248 186.326 207.186 186.326 207.186C186.326 207.186 183.991 207.119 183.591 202.603C183.224 198.087 183.925 193.571 183.991 192.835C184.025 192.534 183.624 192.735 183.224 192.902C182.824 193.069 180.59 193.37 180.59 193.37C180.59 193.37 174.821 194.206 173.721 194.24Z" fill="#F9BE00" stroke="#775C42" stroke-linecap="round" stroke-linejoin="round"/>
<path d="M182.557 187.918C182.557 187.918 180.222 193.739 181.056 193.505C180.789 194.675 179.222 196.95 176.421 199.693C173.62 202.436 171.186 204.644 171.186 204.644C171.186 204.644 170.919 195.378 170.752 195.177C170.785 195.144 172.753 195.344 173.286 194.542C174.02 193.505 175.087 189.691 175.12 189.457C175.187 189.156 182.557 187.918 182.557 187.918Z" fill="#FFDEDE" stroke="#775C42" stroke-linecap="round" stroke-linejoin="round"/>
<path d="M181.723 189.558C181.556 190.093 181.323 190.628 181.023 191.13C180.089 192.836 179.256 194.207 177.388 194.843C176.488 195.144 175.487 195.211 174.554 195.077C173.92 194.977 173.52 194.776 173.287 194.509C174.087 192.769 175.087 189.624 175.121 189.424C175.154 189.19 181.023 188.587 182.057 188.387C181.957 188.788 181.857 189.19 181.723 189.558Z" fill="#775C42"/>
<path d="M173.188 194.676C173.288 194.81 173.388 194.944 173.488 195.077C173.955 195.68 174.556 196.181 175.289 196.482C176.056 196.784 176.89 196.717 177.657 196.482C178.49 196.248 179.257 195.813 179.924 195.278C180.224 195.044 180.491 194.776 180.725 194.509C180.058 195.78 178.624 197.62 176.456 199.761C173.655 202.504 171.221 204.712 171.221 204.712C171.221 204.712 170.954 195.445 170.787 195.245C170.787 195.111 172.488 195.278 173.188 194.676Z" fill="white" stroke="#775C42" stroke-linecap="round" stroke-linejoin="round"/>
<path d="M173.488 184.036C174.555 181.895 175.956 181.293 177.323 180.356C178.19 179.788 179.057 179.487 179.257 180.49C179.557 182.23 180.124 184.772 181.458 185.776C182.425 186.512 182.292 186.88 182.559 187.248C183.092 187.917 183.726 187.381 183.726 187.381C184.393 187.013 185.326 187.248 185.526 187.95C185.726 188.653 185.36 189.623 184.193 190.559C183.259 191.295 182.459 190.994 181.958 190.76C179.224 193.269 176.056 193.704 173.655 192.466C171.154 191.162 171.421 188.619 173.488 184.036Z" fill="#FFDEDE" stroke="#775C42" stroke-linecap="round" stroke-linejoin="round"/>
<path d="M175.696 184.515C175.505 184.886 175.202 185.121 175.028 185.031C174.854 184.941 174.864 184.563 175.059 184.185C175.254 183.808 175.553 183.579 175.73 183.671C175.908 183.762 175.886 184.148 175.696 184.515Z" fill="#775C42"/>
<path d="M179.005 186.204C178.813 186.575 178.51 186.811 178.337 186.721C178.163 186.631 178.173 186.252 178.368 185.875C178.562 185.497 178.862 185.268 179.039 185.36C179.216 185.452 179.194 185.837 179.005 186.204Z" fill="#775C42"/>
<path d="M177.023 184.307C176.6 184.9 175.576 186.031 174.872 185.814C174.168 185.597 174.793 186.594 175.193 187.12" stroke="#775C42" stroke-width="0.75" stroke-linecap="round" stroke-linejoin="round"/>
<path d="M175.309 182.584C175.436 182.526 175.575 182.496 175.716 182.497C175.856 182.498 175.995 182.529 176.121 182.589C176.248 182.65 176.361 182.737 176.45 182.845C176.54 182.953 176.605 183.079 176.64 183.215" fill="white"/>
<path d="M175.309 182.584C175.436 182.526 175.575 182.496 175.716 182.497C175.856 182.498 175.995 182.529 176.121 182.589C176.248 182.65 176.361 182.737 176.45 182.845C176.54 182.953 176.605 183.079 176.64 183.215" stroke="#775C42" stroke-width="0.75" stroke-linecap="round" stroke-linejoin="round"/>
<path d="M178.549 184.069C178.677 184.01 178.815 183.98 178.956 183.981C179.096 183.982 179.235 184.014 179.362 184.074C179.489 184.134 179.601 184.221 179.691 184.329C179.78 184.437 179.845 184.564 179.881 184.699" fill="white"/>
<path d="M178.549 184.069C178.677 184.01 178.815 183.98 178.956 183.981C179.096 183.982 179.235 184.014 179.362 184.074C179.489 184.134 179.601 184.221 179.691 184.329C179.78 184.437 179.845 184.564 179.881 184.699" stroke="#775C42" stroke-width="0.75" stroke-linecap="round" stroke-linejoin="round"/>
<path d="M173.745 188.347C174.302 188.799 174.965 189.103 175.67 189.23L173.745 188.347Z" fill="white"/>
<path d="M173.745 188.347C174.302 188.799 174.965 189.103 175.67 189.23" stroke="#775C42" stroke-width="0.75" stroke-linecap="round" stroke-linejoin="round"/>
<path d="M72.5211 323.853C72.5211 323.853 72.5211 325.893 73.088 328.67C73.7549 331.881 75.0554 335.929 74.7887 336.598C74.3218 337.869 54.7475 337.802 53.8472 337.234C52.9468 336.665 52.7467 335.227 54.314 334.758C55.8813 334.29 55.8813 334.39 56.6149 334.022C57.782 333.454 65.2183 329.54 65.385 328.804C65.5517 328.068 64.1845 323.685 63.9178 323.016C63.651 322.414 72.5211 323.853 72.5211 323.853Z" fill="#FFDEDE" stroke="#775C42" stroke-linecap="round" stroke-linejoin="round"/>
<path d="M53.8474 337.266C52.947 336.698 52.7469 335.259 54.3142 334.791C55.8815 334.323 55.8815 334.423 56.6151 334.055C57.7822 333.486 65.2185 329.572 65.3852 328.836C65.3852 328.836 66.3189 328.803 66.7191 329.271C67.1192 329.706 66.3523 330.543 66.0522 331.312C65.752 332.014 70.5539 331.412 73.355 329.94C74.0553 332.851 74.989 336.029 74.7889 336.631C74.3221 337.902 54.7477 337.802 53.8474 337.266Z" fill="#A87647" stroke="#775C42" stroke-linecap="round" stroke-linejoin="round"/>
<path d="M63.9827 336.397C69.9517 336.129 72.0192 334.658 74.4868 334.356C74.7536 335.46 74.9203 336.33 74.8203 336.598C74.3534 337.869 54.7791 337.802 53.8787 337.233C53.4786 336.999 53.2452 336.598 53.1785 336.163C54.8791 336.33 59.3142 336.598 63.9827 336.397Z" fill="white" stroke="#775C42" stroke-linecap="round" stroke-linejoin="round"/>
<path d="M106.333 323.084C106.599 323.251 109.834 332.417 109.834 336.498C109.834 337.87 100.13 337.402 98.6296 337C97.7959 336.766 97.2624 335.495 98.8297 334.357C100.764 332.986 100.53 330.577 99.7967 327.567C99.0964 324.589 106.333 323.084 106.333 323.084Z" fill="#FFDEDE" stroke="#775C42" stroke-linecap="round" stroke-linejoin="round"/>
<path d="M98.8629 334.39C100.33 333.32 100.564 331.681 100.23 329.607C100.263 329.506 100.297 329.373 100.297 329.272C100.363 328.904 100.464 328.503 100.564 328.135C100.664 327.8 100.797 327.499 101.064 327.299C101.297 327.098 101.664 326.997 101.964 326.897C102.398 326.763 102.864 326.629 103.331 326.529C104.165 326.328 105.099 326.328 105.699 327.064C105.932 327.365 106.032 327.8 106.166 328.168C106.299 328.603 106.466 329.038 106.766 329.373C106.899 329.54 107.166 329.506 107.3 329.373C107.666 329.038 107.933 328.67 108.167 328.235C109.034 331.079 109.867 334.491 109.867 336.565C109.867 337.936 100.163 337.468 98.6628 337.067C97.8291 336.799 97.2956 335.494 98.8629 334.39Z" fill="#A87647" stroke="#775C42" stroke-linecap="round" stroke-linejoin="round"/>
<path d="M97.8626 335.695C98.8297 335.862 100.797 336.13 103.065 336.13C105.699 336.096 108.467 335.862 109.767 335.394C109.801 335.795 109.834 336.163 109.834 336.497C109.834 337.869 100.13 337.401 98.6296 336.999C98.1294 336.865 97.7626 336.33 97.8626 335.695Z" fill="white" stroke="#775C42" stroke-linecap="round" stroke-linejoin="round"/>
<path d="M74.119 325.459C74.219 326.931 62.2477 327.332 61.2473 326.897C60.2802 326.462 53.4109 293.98 50.1096 276.183C46.8416 258.42 46.1747 236.509 46.1747 228.748C46.1747 228.748 77.1535 228.513 78.0205 228.748C78.8875 228.982 89.5917 279.261 90.2586 279.997C90.9256 280.766 109.966 324.02 110.2 324.622C110.967 326.496 99.4289 329.272 97.6949 328.503C95.9609 327.733 76.0531 286.052 74.3191 283.309C72.585 280.565 64.2818 259.122 64.2818 259.122C64.2818 259.122 66.6827 277.789 67.0162 279.963C67.383 282.205 74.119 325.459 74.119 325.459Z" fill="#B0B0B3" stroke="#775C42" stroke-linecap="round" stroke-linejoin="round"/>
<path d="M79.0906 196.804C79.0906 196.804 82.4585 191.753 84.1592 190.18C85.8599 188.641 78.557 186.567 78.557 186.567C78.557 186.567 73.0882 193.024 71.9878 193.358C70.8873 193.693 64.3515 208.01 62.184 212.66C60.0498 217.31 58.8493 226.878 58.8493 226.878C58.8493 226.878 71.1208 213.43 73.9552 207.943L79.0906 196.804Z" fill="#FFDEDE" stroke="#775C42" stroke-linecap="round" stroke-linejoin="round"/>
<path d="M81.8576 191.419C80.9906 192.055 79.9235 192.59 78.7897 192.59C77.7893 192.59 76.8556 192.189 76.0553 191.62C75.6552 191.319 75.255 190.984 74.9215 190.616C76.6889 188.71 78.523 186.535 78.523 186.535C78.523 186.535 82.9247 187.773 84.0918 189.044C83.5583 190.014 82.758 190.817 81.8576 191.419Z" fill="#775C42"/>
<path d="M62.2179 212.661C64.3521 208.011 70.888 193.727 72.0218 193.359C72.3886 193.259 73.2556 192.456 74.2226 191.419C74.6228 192.389 75.2564 193.192 76.1901 193.727C77.5573 194.497 79.0579 194.53 80.5918 194.664C79.7581 195.835 79.1246 196.771 79.1246 196.771L73.9892 207.911C71.1548 213.431 58.8833 226.845 58.8833 226.845C58.8833 226.845 60.0504 217.311 62.2179 212.661Z" fill="white" stroke="#775C42" stroke-linecap="round" stroke-linejoin="round"/>
<path d="M75.2884 196.939C75.2217 196.839 74.188 197.14 73.8545 197.207C73.521 197.307 63.9173 223.132 63.1503 226.043C62.4167 228.92 57.7482 231.897 57.5815 231.964C57.3814 232.031 57.9483 225.073 58.2484 223.868C58.5485 222.698 73.1542 197.307 73.1542 196.906C73.1542 196.504 73.1876 194.932 73.1876 194.932C73.1876 194.932 75.1217 193.795 75.255 194.062C75.4551 194.363 75.2884 196.939 75.2884 196.939Z" fill="#F9BE00" stroke="#775C42" stroke-miterlimit="10" stroke-linejoin="round"/>
<path d="M82.8943 178.574C82.8943 178.574 82.4275 176.466 83.4612 172.82C84.495 169.173 87.5295 169.04 88.7633 169.742C90.3973 170.645 90.9975 172.452 92.398 172.786C95.4993 173.589 97.2666 176.098 96.2996 178.373C95.3325 180.648 97.1332 180.28 97.0665 183.056C96.9999 185.833 90.564 192.389 87.3961 191.921C84.2282 191.453 81.4271 188.375 80.7268 186.368C80.0599 184.394 82.8943 178.574 82.8943 178.574Z" fill="#263238" stroke="#775C42" stroke-linecap="round" stroke-linejoin="round"/>
<path d="M76.558 182.856C78.3587 180.314 81.7267 177.069 82.2269 176.534C82.6937 176.032 83.1939 175.53 83.6607 175.062C83.7941 174.928 83.9942 174.727 84.2276 174.526C84.2276 174.995 84.2943 175.43 84.4611 175.864C84.8612 176.835 85.6282 177.437 86.5952 177.738C87.3288 177.972 88.0958 178.072 88.7961 178.373C88.8961 178.44 88.9962 178.474 89.0962 178.541C89.3296 178.674 89.5631 178.842 89.6298 179.109C89.7631 179.511 89.5964 179.912 89.3296 180.213C88.9962 180.648 88.7961 181.083 88.7294 181.618C88.6627 182.154 88.6961 182.722 88.7627 183.257C88.7627 183.726 88.9295 184.261 88.8961 184.763C88.8294 185.633 87.729 186.168 87.5956 186.569C87.4622 186.904 88.4293 187.138 88.4293 187.138C88.4293 187.138 89.4297 186.302 90.1633 186.369C91.4305 186.502 92.4642 187.539 91.2971 189.379C89.4297 192.29 86.5286 190.416 86.5286 190.416C86.5286 190.416 84.0609 193.728 79.4258 191.219C74.1237 188.376 74.4238 185.833 76.558 182.856Z" fill="#FFDEDE" stroke="#775C42" stroke-linecap="round" stroke-linejoin="round"/>
<path d="M81.5991 179.413C81.2506 179.764 80.824 179.923 80.6594 179.759C80.4947 179.595 80.6404 179.17 80.9953 178.812C81.3502 178.455 81.7704 178.303 81.9382 178.47C82.1061 178.637 81.9443 179.065 81.5991 179.413Z" fill="#775C42"/>
<path d="M85.1635 182.957C84.815 183.308 84.3885 183.466 84.2238 183.303C84.0592 183.139 84.2049 182.714 84.5598 182.356C84.9147 181.999 85.3348 181.847 85.5027 182.014C85.6706 182.181 85.5088 182.609 85.1635 182.957Z" fill="#775C42"/>
<path d="M83.3184 179.945C82.5516 180.562 80.8327 181.666 80.0913 181.154C79.3499 180.642 79.6513 182.124 79.8946 182.929" stroke="#775C42" stroke-width="0.75" stroke-linecap="round" stroke-linejoin="round"/>
<path d="M78.2452 183.568C78.0592 184.296 78.4986 185.701 81.7445 185.498" stroke="#775C42" stroke-width="0.75" stroke-linecap="round" stroke-linejoin="round"/>
<path d="M81.9065 177.083C82.0963 177.059 82.289 177.077 82.4713 177.136C82.6535 177.195 82.8208 177.293 82.9613 177.423C83.1019 177.553 83.2122 177.712 83.2846 177.89C83.3571 178.067 83.3898 178.258 83.3805 178.449" fill="white"/>
<path d="M81.9065 177.083C82.0963 177.059 82.289 177.077 82.4713 177.136C82.6535 177.195 82.8208 177.293 82.9613 177.423C83.1019 177.553 83.2122 177.712 83.2846 177.89C83.3571 178.067 83.3898 178.258 83.3805 178.449" stroke="#775C42" stroke-width="0.75" stroke-linecap="round" stroke-linejoin="round"/>
<path d="M85.51 180.338C85.6998 180.314 85.8926 180.332 86.0748 180.391C86.2571 180.45 86.4243 180.547 86.5649 180.678C86.7054 180.808 86.8157 180.967 86.8882 181.145C86.9606 181.322 86.9933 181.513 86.984 181.704" fill="white"/>
<path d="M85.51 180.338C85.6998 180.314 85.8926 180.332 86.0748 180.391C86.2571 180.45 86.4243 180.547 86.5649 180.678C86.7054 180.808 86.8157 180.967 86.8882 181.145C86.9606 181.322 86.9933 181.513 86.984 181.704" stroke="#775C42" stroke-width="0.75" stroke-linecap="round" stroke-linejoin="round"/>
<path d="M47.6136 221.258C49.6144 212.962 58.1178 192.221 58.3512 191.452C58.5846 190.683 58.9514 172.685 59.0848 167.968C59.1848 163.252 62.2193 142.244 62.2193 142.244L70.9228 141.407C70.9228 141.407 69.3221 165.359 69.5556 168.504C69.789 171.648 69.789 188.006 70.4226 189.779C70.8227 190.917 71.3563 191.552 71.8231 191.92C72.2566 192.054 72.4233 191.887 72.9902 191.787C73.5571 191.686 73.9239 191.787 73.9239 191.787L73.2904 192.422C73.2904 192.422 71.6897 194.128 66.1876 206.706C63.1864 213.531 60.2186 224.537 60.2186 224.537C63.0197 219.519 76.9251 198.979 79.6262 195.901L80.4932 194.898C80.4932 194.898 80.8266 195.232 80.7933 195.5C80.76 195.701 80.8266 196.102 80.9934 196.336C82.594 196.838 85.2617 195.266 85.962 194.931C86.8623 194.496 102.135 174.726 103.169 172.083C105.003 167.366 112.639 149.804 113.306 149.938C113.973 150.071 121.176 154.454 121.176 154.454C121.176 154.454 115.707 168.27 113.573 173.89C111.439 179.51 103.502 193.827 100.068 199.681C96.5995 205.502 80.0263 228.016 80.0597 228.718C80.5599 236.814 82.1938 244.641 81.3935 244.976C80.5932 245.31 60.1852 252.034 59.3849 251.566C58.6179 251.098 56.7172 242.3 56.7172 241.965C56.7172 241.631 54.9165 250.83 54.583 251.499C54.2495 252.168 43.3786 246.381 43.0452 245.913C42.6784 245.377 45.5795 229.554 47.6136 221.258Z" fill="white" stroke="#775C42" stroke-linecap="round" stroke-linejoin="round"/>
<path d="M117.273 154.154C117.273 154.154 120.842 155.124 121.108 154.388C121.508 153.217 118.074 151.645 117.207 151.21C116.34 150.742 117.273 154.154 117.273 154.154Z" fill="white" stroke="#775C42" stroke-linecap="round" stroke-linejoin="round"/>
<path d="M117.273 154.153C117.173 154.02 114.105 153.417 113.438 151.644C112.771 149.871 113.805 147.73 114.005 146.459C114.205 145.188 115.472 144.954 116.339 143.014C117.24 141.073 117.806 140.003 118.573 140.271C119.34 140.538 119.24 141.441 119.24 141.776C119.24 142.11 123.675 137.728 124.242 136.892C124.842 136.089 125.576 136.424 125.609 136.424C125.643 136.424 126.243 135.855 126.743 136.056C127.243 136.223 127.544 136.758 127.31 137.193C127.11 137.594 126.943 137.661 126.943 137.661C126.943 137.661 127.177 138.029 127.043 138.33C126.877 138.631 126.243 139.434 126.243 139.434C126.243 139.434 126.543 139.869 126.41 140.304C126.31 140.705 123.942 143.984 122.608 145.322C121.308 146.66 118.64 151.31 118.273 151.812C117.94 152.247 117.273 154.153 117.273 154.153Z" fill="#FFDEDE" stroke="#775C42" stroke-linecap="round" stroke-linejoin="round"/>
<path d="M122.008 142.446C122.775 141.309 123.042 141.175 124.009 140.238C124.476 139.77 124.809 139.134 125.476 138.933C126.043 138.733 126.41 139.201 126.477 139.469C126.577 139.837 126.377 139.803 126.277 139.569C126.21 139.402 126.11 139.368 125.943 139.368C125.676 139.368 125.41 139.602 125.243 139.77C124.843 140.171 124.509 140.639 124.076 141.007C123.242 141.743 123.209 141.81 122.575 142.747C122.308 143.048 121.808 142.747 122.008 142.446Z" fill="#775C42"/>
<path d="M121.675 141.006C122.608 139.936 122.842 139.534 123.942 138.631C124.476 138.163 125.043 137.728 125.643 137.393C126.21 137.092 126.943 137.025 127.21 137.661C127.344 137.996 127.11 138.029 126.977 137.795C126.71 137.393 125.843 137.929 125.409 138.196C124.909 138.531 124.409 138.932 123.942 139.334C123.042 140.17 122.875 140.438 122.075 141.374C121.841 141.709 121.408 141.307 121.675 141.006Z" fill="#775C42"/>
<path d="M117.34 145.723C117.674 145.087 118.174 144.384 118.207 143.649C118.241 143.281 118.241 143.113 118.407 142.779C118.541 142.444 118.808 142.177 119.041 141.909C119.308 141.641 119.441 141.809 119.208 142.076C119.008 142.31 118.874 142.612 118.774 142.913C118.708 143.08 118.708 143.247 118.708 143.448C118.708 143.649 118.674 143.816 118.674 143.983C118.574 144.719 118.207 145.388 117.874 146.024C117.674 146.325 117.174 146.024 117.34 145.723Z" fill="#775C42"/>
<path d="M64.9516 142.88C64.9516 142.88 62.484 142.913 62.1839 142.244C61.7837 141.341 66.0854 140.103 67.1191 140.538C68.1195 140.973 64.9516 142.88 64.9516 142.88Z" fill="#1A1A1A"/>
<path d="M64.8511 142.88C64.8511 142.88 70.2199 142.779 70.8868 141.408C71.5538 140.036 72.6209 136.992 72.6209 136.992C72.6209 136.992 73.9214 136.022 74.655 134.684C75.522 133.112 75.5553 133.48 75.8888 132.744C76.0889 132.275 75.8554 131.974 74.9217 132.175C73.988 132.376 73.2211 133.145 72.8876 133.245C72.5208 133.346 72.5208 131.038 72.8209 129.967C73.121 128.897 73.4212 127.09 72.921 126.722C72.4208 126.354 72.054 127.023 71.8872 127.291C71.7205 127.558 70.9535 130.235 70.6534 130.067C70.3533 129.9 71.5204 126.153 70.9869 125.284C70.4533 124.414 69.7864 125.484 69.6864 125.752C69.5863 126.02 69.2529 125.384 68.7527 125.719C68.2525 126.02 67.7523 127.458 67.7523 127.458C67.7523 127.458 67.3521 127.09 66.7185 127.659C66.1183 128.228 65.418 130.435 65.1846 131.439C64.9178 132.409 65.0179 136.724 65.1179 137.862C65.218 138.932 64.8511 142.88 64.8511 142.88Z" fill="#FFDEDE" stroke="#775C42" stroke-linecap="round" stroke-linejoin="round"/>
<path d="M67.5513 140.939C68.4517 140.839 69.3853 140.638 70.2524 140.404C70.6859 140.27 71.1194 140.136 71.5195 139.936C71.2861 140.471 71.086 141.006 70.8859 141.407C70.219 142.779 64.8503 142.879 64.8503 142.879C64.8503 142.879 64.9169 142.043 65.017 141.039C65.8506 141.073 66.6843 141.039 67.5513 140.939Z" fill="white"/>
<path d="M68.4531 135.253C69.02 134.617 69.7203 133.915 70.5206 133.58C70.9207 133.413 71.3542 133.346 71.7877 133.246L72.7548 133.112C73.1216 133.045 73.255 133.246 72.8882 133.346C72.4213 133.447 72.0545 133.547 71.8211 133.647C71.4209 133.815 71.1875 133.915 70.7873 134.082C70.0204 134.383 69.3534 135.086 68.8199 135.688C68.5865 135.955 68.1863 135.521 68.4531 135.253Z" fill="#E08257"/>
<path d="M66.2507 130.502C68.2181 129.9 69.7521 130.101 71.7195 130.603C72.0863 130.703 72.0197 130.87 71.6862 130.803C69.7854 130.335 68.2848 130.502 66.4174 131.071C66.0506 131.138 65.8839 130.603 66.2507 130.502Z" fill="#E08257"/>
<path d="M80.7821 92.1445C80.4975 93.224 80.1886 94.3256 79.8332 95.425C79.4768 96.5475 79.1203 97.6701 78.7418 98.7684C79.0971 97.669 79.4536 96.5464 79.81 95.4239C80.1422 94.3234 80.4743 93.2229 80.7821 92.1445Z" fill="url(#paint0_linear_926_35801)"/>
<path d="M124.577 183.237C126.87 179.091 129.332 174.814 132.008 170.454C139.529 158.21 147.101 147.807 154.077 139.165L158.776 140.625L177.32 146.336C170.345 154.977 162.773 165.358 155.251 177.625C150.808 184.877 146.912 191.876 143.522 198.504C141.802 201.863 137.908 203.513 134.285 202.407L129.587 200.947C123.192 198.964 120.726 190.262 124.577 183.237Z" fill="#E4F4FF" stroke="#775C42" stroke-miterlimit="10"/>
<path d="M167.523 101.73L172.688 99.7703L203.977 109.423C206.887 110.331 209.157 112.465 209.714 114.911C210.716 119.239 211.472 126.719 208.526 136.229C205.33 146.565 200.858 152.001 197.726 154.734C195.857 156.342 192.881 156.803 190.015 155.92L158.383 146.157L150.65 134.758L167.523 101.73Z" fill="#639DC6" stroke="#775C42" stroke-linecap="round" stroke-linejoin="round"/>
<path d="M48.1848 133.813C55.1631 123.194 61.7401 108.346 66.9508 91.4312C72.1627 74.4933 74.9535 58.5549 75.0735 45.9068C84.2565 54.2592 86.1554 72.3316 80.7818 92.1461C80.4741 93.2244 80.1419 94.3249 79.8098 95.4254C79.4534 96.5479 79.0969 97.6705 78.7416 98.7699C72.0409 118.125 60.6121 132.273 48.1848 133.813Z" fill="url(#paint1_linear_926_35801)"/>
<path d="M143.738 148.822L175.371 158.585C178.213 159.466 181.322 158.663 183.358 156.482C186.768 152.809 191.814 145.609 195.895 132.339C196.255 131.146 196.589 130 196.877 128.85C199.615 118.353 199.424 110.249 198.795 105.427C198.559 103.555 197.64 101.882 196.28 100.653C195.454 99.9156 194.459 99.3325 193.336 98.9759L162.047 89.3228C162.047 89.3228 163.457 95.3223 159.685 110.864C159.311 112.358 158.933 113.921 158.456 115.62C158.034 117.134 157.587 118.694 157.064 120.367C150.145 142.828 143.738 148.822 143.738 148.822Z" fill="#639DC6" stroke="#775C42" stroke-linecap="round" stroke-linejoin="round"/>
<path d="M36.565 160.649C36.565 160.649 85.8693 136.724 143.746 148.825C143.746 148.825 150.175 142.832 157.095 120.371C157.616 118.722 158.065 117.139 158.486 115.624C158.962 113.949 159.363 112.386 159.715 110.868C163.486 95.3498 162.078 89.3272 162.078 89.3272C107.452 66.707 80.1961 19.1718 80.1961 19.1718L72.5892 43.8322L58.3119 90.1281L36.565 160.649Z" fill="#E4F4FF" stroke="#775C42" stroke-miterlimit="10"/>
<path d="M29.1764 79.79C21.4296 104.933 23.8322 128.007 40.4748 133.138C43.0651 133.938 45.6381 134.132 48.1891 133.813C40.1823 145.987 31.63 152.575 23.9739 150.205C9.05087 145.599 10.3507 113.748 21.5435 77.4208C32.7364 41.0933 50.6592 13.8138 64.5476 18.6486C71.8234 21.1867 75.217 31.3993 75.1006 45.9084C73.228 44.2129 71.0579 42.8985 68.5848 42.0812C52.9911 36.9081 36.9231 54.6473 29.1764 79.79Z" fill="url(#paint2_linear_926_35801)"/>
<path d="M48.1867 133.813C45.6357 134.131 43.0628 133.937 40.4725 133.137C23.8302 128.007 21.4276 104.932 29.1742 79.7897C36.9209 54.647 52.9886 36.908 68.5589 42.0799C71.032 42.8972 73.202 44.2116 75.0746 45.9071C74.9535 58.5783 72.187 74.4945 66.9521 91.4312C61.7405 108.369 55.1637 123.217 48.1867 133.813Z" fill="url(#paint3_linear_926_35801)"/>
<path d="M48.1867 133.813C45.6357 134.131 43.0628 133.937 40.4725 133.137C23.8302 128.007 21.4276 104.932 29.1742 79.7897C36.9209 54.647 52.9886 36.908 68.5589 42.0799C71.032 42.8972 73.202 44.2116 75.0746 45.9071C74.9535 58.5783 72.187 74.4945 66.9521 91.4312C61.7405 108.369 55.1637 123.217 48.1867 133.813Z" fill="url(#paint4_linear_926_35801)"/>
<path d="M21.5201 77.4431C32.713 41.1157 50.6358 13.8362 64.5242 18.6709C71.7999 21.209 75.1936 31.4217 75.0771 45.9307C74.956 58.602 72.1896 74.5182 66.9546 91.455C61.744 108.37 55.1671 123.218 48.1889 133.837C40.1821 146.01 31.6298 152.599 23.9737 150.228C9.02746 145.622 10.3273 113.771 21.5201 77.4431Z" fill="#ADCFE7" stroke="#775C42" stroke-linecap="round" stroke-linejoin="round"/>
<path d="M66.902 116.154L62.8688 123.589L39.442 102.336C39.442 102.336 42.1414 94.5813 42.0877 93.7646C42.0339 92.9479 44.6825 80.4454 44.6825 80.4454L42.3657 87.9862C42.3657 87.9862 47.2145 76.1715 47.711 75.521C48.2308 74.8715 50.3566 66.9494 50.3566 66.9494L81.6683 62.6008L80.8221 71.0034L66.902 116.154Z" fill="white" stroke="#775C42" stroke-linecap="round" stroke-linejoin="round"/>
<path d="M50.3575 66.9504C54.7744 68.4664 55.2642 77.1431 52.2344 86.929C49.2278 96.716 44.0718 103.794 39.4415 102.361C34.6278 100.872 34.5348 92.168 37.5646 82.3821C40.5712 72.5951 45.8489 65.4067 50.3575 66.9504Z" fill="white" stroke="#775C42" stroke-linecap="round" stroke-linejoin="round"/>
<path d="M23.7502 161.126C43.8083 167.306 65.6947 138.869 78.745 98.747C79.1003 97.6477 79.4567 96.5252 79.8131 95.4026C80.1452 94.3021 80.4762 93.2249 80.7851 92.1233C92.5745 51.6146 89.6563 16.0476 70.498 9.53927C50.47 2.73307 27.3369 33.3893 14.4361 75.24C1.53425 117.114 2.27093 154.506 23.7502 161.126ZM23.9489 150.227C9.02603 145.621 10.3258 113.77 21.5185 77.4431C32.7112 41.1157 50.6337 13.8363 64.522 18.6711C71.7976 21.2091 75.1912 31.4217 75.0748 45.9308C74.9536 58.602 72.1872 74.5182 66.9523 91.4549C61.7418 108.369 55.165 123.218 48.1869 133.836C40.157 146.009 31.6059 152.574 23.9489 150.227Z" fill="#E4F4FF" stroke="#775C42" stroke-linecap="round" stroke-linejoin="round"/>
<path d="M190.088 148.057C190.088 148.057 189.821 148.559 188.588 150.198C187.354 151.837 187.621 152.104 187.721 154.078C187.787 155.249 188.254 159.631 188.554 162.776C188.888 165.92 188.821 166.255 188.821 166.255L194.123 164.014C194.123 164.014 192.089 152.974 192.156 152.104C192.222 151.235 194.457 148.625 195.19 147.555C195.19 147.555 195.924 146.585 195.924 145.815C195.924 145.046 195.29 144.444 195.157 143.808C195.023 143.173 194.657 143.44 194.423 143.574C194.19 143.708 194.523 142.838 194.457 142.47C194.39 142.069 193.656 141.868 193.39 142.336C193.289 142.504 193.189 142.37 192.789 142.537C192.389 142.704 192.022 143.44 192.022 143.44C192.022 143.44 191.355 143.474 191.122 144.41C190.889 145.347 190.522 147.321 190.088 148.057Z" fill="#FFDEDE" stroke="#775C42" stroke-linecap="round" stroke-linejoin="round"/>
<path d="M191.389 147.052C191.589 146.416 191.422 146.048 191.589 145.379C191.689 145.045 191.789 144.744 191.856 144.409C191.889 144.242 191.956 144.075 191.989 143.908C191.989 143.841 192.056 143.74 192.056 143.673C192.056 143.573 191.989 143.606 191.923 143.64C191.756 143.841 191.489 143.506 191.656 143.339C191.889 143.105 192.289 143.172 192.423 143.506C192.49 143.707 192.39 143.908 192.356 144.108C192.289 144.342 192.223 144.543 192.156 144.777C191.889 145.647 192.023 146.249 191.723 147.152C191.656 147.42 191.322 147.286 191.389 147.052Z" fill="#775C42"/>
<path d="M193.222 147.388C193.389 147.086 193.556 146.785 193.722 146.484C193.856 146.217 194.056 145.949 194.089 145.648C194.123 145.347 194.123 145.012 194.156 144.711C194.156 144.377 194.189 144.009 194.189 143.674C194.189 143.407 194.589 143.474 194.589 143.708C194.589 143.708 194.856 145.113 194.923 145.38C195.023 145.681 194.856 145.882 194.689 146.116C194.323 146.652 193.923 147.12 193.522 147.588C193.389 147.822 193.122 147.622 193.222 147.388Z" fill="#775C42"/>
<path d="M184.186 205.294C184.186 205.294 187.254 202.852 189.121 198.537C192.501 190.725 197.023 178.444 195.924 169.701C195.69 167.761 195.99 165.285 195.357 163.613C194.957 162.576 194.79 161.371 194.756 160.803C194.723 160.535 194.556 160.334 194.323 160.2C194.023 160.067 193.523 159.799 192.656 159.732C190.188 159.531 188.287 160.468 188.054 160.702C187.82 160.936 188.187 163.646 188.221 163.813C188.287 163.981 187.787 165.921 187.754 169.099C187.72 172.21 186.053 176.324 186.387 179.603C186.487 180.673 184.919 184.487 184.152 185.725C183.352 186.962 183.719 188.836 183.485 189.304C183.252 189.772 182.885 189.271 182.752 189.973C182.618 190.676 181.851 191.01 181.851 191.01C181.851 191.01 180.784 195.359 180.618 200.879C180.484 206.331 183.685 205.863 184.186 205.294Z" fill="white" stroke="#775C42" stroke-linecap="round" stroke-linejoin="round"/>
<defs>
<linearGradient id="paint0_linear_926_35801" x1="102.002" y1="74.8247" x2="37.942" y2="134.275" gradientUnits="userSpaceOnUse">
<stop offset="0.00949724" stop-color="#8FC2FF"/>
<stop offset="0.0928198" stop-color="#82ACEA"/>
<stop offset="0.2203" stop-color="#7292D1"/>
<stop offset="0.36" stop-color="#667DBD"/>
<stop offset="0.5165" stop-color="#5E6EB0"/>
<stop offset="0.7034" stop-color="#5966A7"/>
<stop offset="1" stop-color="#5763A5"/>
</linearGradient>
<linearGradient id="paint1_linear_926_35801" x1="79.7899" y1="95.4751" x2="14.4086" y2="75.3116" gradientUnits="userSpaceOnUse">
<stop offset="0.00949704" stop-color="#FF8317"/>
<stop offset="0.0838858" stop-color="#FF7D1A"/>
<stop offset="0.3884" stop-color="#FF6925"/>
<stop offset="0.694" stop-color="#FF5D2C"/>
<stop offset="1" stop-color="#FF592E"/>
</linearGradient>
<linearGradient id="paint2_linear_926_35801" x1="79.8133" y1="95.4165" x2="14.4346" y2="75.2541" gradientUnits="userSpaceOnUse">
<stop offset="0.00949704" stop-color="#FF8317"/>
<stop offset="0.0838858" stop-color="#FF7D1A"/>
<stop offset="0.3884" stop-color="#FF6925"/>
<stop offset="0.694" stop-color="#FF5D2C"/>
<stop offset="1" stop-color="#FF592E"/>
</linearGradient>
<linearGradient id="paint3_linear_926_35801" x1="79.8092" y1="95.4154" x2="14.4327" y2="75.254" gradientUnits="userSpaceOnUse">
<stop offset="0.00949704" stop-color="#FF8317"/>
<stop offset="0.0838858" stop-color="#FF7D1A"/>
<stop offset="0.3884" stop-color="#FF6925"/>
<stop offset="0.694" stop-color="#FF5D2C"/>
<stop offset="1" stop-color="#FF592E"/>
</linearGradient>
<linearGradient id="paint4_linear_926_35801" x1="93.7606" y1="48.3429" x2="4.32033" y2="131.342" gradientUnits="userSpaceOnUse">
<stop offset="0.00949724" stop-color="#8FC2FF"/>
<stop offset="0.0683356" stop-color="#8BBCFA"/>
<stop offset="0.4655" stop-color="#7599DD"/>
<stop offset="0.7903" stop-color="#6783CB"/>
<stop offset="1" stop-color="#627BC5"/>
</linearGradient>
</defs>
</svg>
