<svg width="97" height="101" viewBox="0 0 97 101" fill="none" xmlns="http://www.w3.org/2000/svg">
<g clip-path="url(#clip0_926_35802)">
<path d="M26.6712 81.463C28.667 80.1413 31.4696 79.1433 35.4038 78.8595C35.2822 79.8704 34.871 82.1807 33.5079 84.6544C31.7287 87.8835 28.3167 91.4158 21.7211 92.6946C21.7189 92.6733 21.7168 92.6513 21.7146 92.6287C21.6796 92.259 21.6477 91.7264 21.6615 91.0831C21.6891 89.7937 21.9 88.0756 22.6248 86.3372C23.3474 84.6042 24.5822 82.8464 26.6712 81.463Z" fill="#CBEFB5" stroke="#775C42"/>
<path d="M20.9091 92.7556C20.8894 92.7539 20.869 92.7521 20.848 92.7502C20.5219 92.7204 20.0485 92.6622 19.4696 92.549C18.3106 92.3223 16.7354 91.8765 15.0735 91.0011C11.875 89.3166 8.31853 86.0244 6.803 79.5327C6.81626 79.5344 6.82969 79.5361 6.84329 79.5379C7.30348 79.5974 7.96074 79.6969 8.74354 79.8566C10.3121 80.1765 12.3703 80.7348 14.3536 81.687C16.3391 82.6403 18.2194 83.9738 19.4724 85.8282C20.6571 87.5816 21.3048 89.835 20.9091 92.7556Z" fill="#CBEFB5" stroke="#775C42"/>
<path d="M21.2721 99.8151L21.166 89.9287" stroke="#775C42" stroke-miterlimit="10" stroke-linecap="round" stroke-linejoin="round"/>
<path d="M72.8916 99.6651L72.6582 77.0283" stroke="#775C42" stroke-miterlimit="10" stroke-linecap="round" stroke-linejoin="round"/>
<path d="M63.8101 82.7765C56.7338 81.2631 52.1507 74.4319 53.3784 67.3116L53.3786 67.3105C55.1331 56.9943 59.1693 41.4284 68.3508 26.8013L68.351 26.801C71.1461 22.3408 77.6622 22.3855 80.354 26.8969C85.3817 35.368 92.1433 49.3349 95.3759 67.294C96.6861 74.5824 91.9356 81.6169 84.6796 82.9863L84.6796 82.9863C79.0031 84.0585 71.7734 84.4785 63.8101 82.7765ZM63.8101 82.7765L63.7055 83.2655L63.8101 82.7765Z" fill="#CBEFB5" stroke="#775C42"/>
<path opacity="0.2" d="M80.4685 27.8613C85.3083 36.0157 91.8156 49.4573 94.9269 66.7422C96.2283 73.9815 91.5105 80.9768 84.2916 82.3393C81.1803 82.929 77.5809 83.3154 73.6562 83.234C90.1481 74.7746 87.2605 52.6906 80.4685 27.8613Z" fill="#8AB35A"/>
<path fill-rule="evenodd" clip-rule="evenodd" d="M56.2709 31.7614C57.4652 29.3252 58.0697 26.5581 57.9087 23.6563C57.4075 14.6244 49.6793 7.70895 40.6474 8.21018C31.6155 8.71141 24.7 16.4395 25.2013 25.4715C25.3193 27.5985 25.8382 29.6082 26.6805 31.4312C25.5225 32.2502 24.4179 33.1781 23.3811 34.2149C13.5136 44.0824 13.5136 60.0808 23.3811 69.9483C33.2486 79.8158 49.2469 79.8158 59.1144 69.9483C68.9819 60.0808 68.9819 44.0824 59.1144 34.2149C58.2145 33.315 57.2636 32.4972 56.2709 31.7614Z" fill="#9BCA7D"/>
<path d="M56.2709 31.7614L55.822 31.5413C55.7158 31.7579 55.7794 32.0194 55.9732 32.1631L56.2709 31.7614ZM57.9087 23.6563L58.4079 23.6286L57.9087 23.6563ZM40.6474 8.21018L40.6751 8.70942L40.6474 8.21018ZM25.2013 25.4715L24.702 25.4992L25.2013 25.4715ZM26.6805 31.4312L26.9692 31.8395C27.1661 31.7003 27.2355 31.4404 27.1344 31.2215L26.6805 31.4312ZM23.3811 34.2149L23.0275 33.8614L23.3811 34.2149ZM23.3811 69.9483L23.0275 70.3018L23.3811 69.9483ZM59.1144 34.2149L59.468 33.8614L59.1144 34.2149ZM56.7199 31.9815C57.9509 29.4704 58.5738 26.6181 58.4079 23.6286L57.4095 23.684C57.5656 26.498 56.9795 29.1801 55.822 31.5413L56.7199 31.9815ZM58.4079 23.6286C57.8914 14.321 49.9273 7.19442 40.6197 7.71095L40.6751 8.70942C49.4313 8.22349 56.9235 14.9279 57.4095 23.684L58.4079 23.6286ZM40.6197 7.71095C31.3121 8.22748 24.1855 16.1915 24.702 25.4992L25.7005 25.4437C25.2146 16.6876 31.9189 9.19535 40.6751 8.70942L40.6197 7.71095ZM24.702 25.4992C24.8236 27.6902 25.3583 29.7616 26.2266 31.641L27.1344 31.2215C26.3181 29.4548 25.815 27.5068 25.7005 25.4437L24.702 25.4992ZM26.3918 31.023C25.2108 31.8582 24.0845 32.8044 23.0275 33.8614L23.7346 34.5685C24.7514 33.5518 25.8342 32.6421 26.9692 31.8395L26.3918 31.023ZM23.0275 33.8614C12.9648 43.9241 12.9648 60.2391 23.0275 70.3018L23.7346 69.5947C14.0624 59.9225 14.0624 44.2407 23.7346 34.5685L23.0275 33.8614ZM23.0275 70.3018C33.0903 80.3646 49.4052 80.3646 59.468 70.3018L58.7609 69.5947C49.0886 79.267 33.4069 79.267 23.7346 69.5947L23.0275 70.3018ZM59.468 70.3018C69.5307 60.2391 69.5307 43.9241 59.468 33.8614L58.7609 34.5685C68.4331 44.2407 68.4331 59.9225 58.7609 69.5947L59.468 70.3018ZM59.468 33.8614C58.5506 32.944 57.581 32.1101 56.5687 31.3597L55.9732 32.1631C56.9461 32.8842 57.8784 33.686 58.7609 34.5685L59.468 33.8614Z" fill="#775C42"/>
<path d="M40.9805 100.34V23.291" stroke="#775C42" stroke-miterlimit="10" stroke-linecap="round" stroke-linejoin="round"/>
<path d="M51.7357 47.8789L41.3613 63.2813" stroke="#775C42" stroke-miterlimit="10" stroke-linecap="round" stroke-linejoin="round"/>
<path d="M34.1289 35.0654L40.9247 44.0065" stroke="#775C42" stroke-miterlimit="10" stroke-linecap="round" stroke-linejoin="round"/>
<path d="M41.2168 34.1754L45.5872 27.5986" stroke="#775C42" stroke-miterlimit="10" stroke-linecap="round" stroke-linejoin="round"/>
</g>
<defs>
<clipPath id="clip0_926_35802">
<rect width="96" height="100" fill="white" transform="translate(0.160156 0.722656)"/>
</clipPath>
</defs>
</svg>
